<svg version="1.1" id="Layer_1" xmlns="http://www.w3.org/2000/svg" xmlns:xlink="http://www.w3.org/1999/xlink" x="0px" y="0px"
	 width="100%" viewBox="0 0 1024 1024" enable-background="new 0 0 1024 1024" xml:space="preserve">
<path fill="#000000" opacity="1.000000" stroke="none" 
	d="
M623.953613,615.920288 
	C620.213989,619.945862 617.329346,624.271851 612.809570,627.076355 
	C599.157715,635.547241 589.490112,632.598877 582.489807,617.371460 
	C578.809082,621.764648 575.811462,626.531433 571.320679,630.027771 
	C555.876160,642.052429 539.556335,638.349365 531.026550,620.745911 
	C530.606445,619.878845 530.200134,619.005127 529.611023,617.762573 
	C524.755371,623.530701 520.423218,629.184875 515.561951,634.340027 
	C506.965149,643.456604 496.717316,649.639282 483.810760,650.335632 
	C466.783417,651.254395 454.745056,643.664307 447.096039,628.676758 
	C445.813171,626.163086 444.624115,623.601501 443.202759,620.672729 
	C440.484772,622.299377 439.490662,625.057007 438.040619,627.305054 
	C430.670410,638.731323 421.563354,648.107239 408.913910,653.778015 
	C386.718292,663.728333 362.865540,654.830811 352.877747,632.712158 
	C351.865601,630.470703 351.307800,627.966675 349.028503,625.750610 
	C341.613403,631.267090 333.997406,636.561340 325.138794,639.663147 
	C316.436005,642.710266 307.453796,644.154297 297.883698,644.410889 
	C298.375488,647.691040 300.407745,649.760620 301.936859,651.988281 
	C318.861298,676.644592 337.721527,699.679199 359.430176,720.317566 
	C364.844757,725.465271 365.452606,728.514648 362.133881,732.705872 
	C358.405823,737.414001 353.800629,737.972961 348.046875,733.891479 
	C336.138916,725.444519 326.281738,714.794678 316.729889,703.876770 
	C295.824463,679.981506 278.653473,653.339966 260.611267,627.337952 
	C253.868118,617.619812 246.958008,608.020691 240.805969,597.904053 
	C238.750366,594.523743 237.526733,591.194580 238.540909,587.059814 
	C239.484177,583.214111 239.455338,579.138916 240.256607,575.247498 
	C241.718658,568.147156 244.708237,565.745117 252.014023,565.780457 
	C264.364075,565.840149 275.891327,562.999023 285.792725,555.489868 
	C296.282013,547.534851 303.326538,537.319763 303.939148,523.626831 
	C304.525940,510.510895 296.324768,500.632141 283.382965,498.208069 
	C274.790375,496.598663 266.476685,497.672943 258.209686,499.858185 
	C254.189514,500.920837 250.274109,502.374420 246.269806,503.503967 
	C242.840515,504.471313 240.981949,506.598724 240.362640,510.102020 
	C237.410309,526.802429 234.413345,543.495178 231.376617,560.180481 
	C226.856842,585.014343 222.253799,609.833069 217.755356,634.670776 
	C214.200317,654.299438 210.898163,673.975281 207.179886,693.572449 
	C205.663712,701.563416 199.274292,705.159180 193.005905,702.253113 
	C188.694077,700.254089 186.834702,695.951416 187.845657,689.919739 
	C189.603302,679.432983 191.372345,668.947144 193.258926,658.483032 
	C200.804321,616.631470 207.252670,574.585938 215.482910,532.854614 
	C216.309875,528.661438 216.633728,524.369141 217.237488,519.769104 
	C213.613068,520.189392 211.221893,522.096741 208.795227,523.701965 
	C193.914886,533.545715 179.253006,543.658264 168.019669,557.878052 
	C162.258759,565.170654 157.711914,572.970337 156.500504,582.395386 
	C155.212570,592.415833 162.972260,599.869385 172.832703,597.997314 
	C178.380890,596.943970 183.165619,599.209839 184.817444,603.672913 
	C186.811066,609.059509 184.428055,614.752258 179.007538,617.552429 
	C169.631760,622.395813 156.713165,620.087585 148.029327,612.017212 
	C136.763062,601.546814 133.130066,584.315491 138.913498,568.661743 
	C144.261612,554.186279 154.076324,542.852661 165.114777,532.594299 
	C187.480820,511.809021 213.486191,496.655396 241.672073,485.338348 
	C257.447754,479.004211 274.014740,475.889893 291.015472,479.624481 
	C316.232544,485.163910 330.429565,509.296082 323.499451,534.183655 
	C315.595062,562.570068 294.245544,580.559692 264.004486,584.324158 
	C262.213654,584.546997 260.429474,584.823181 258.726715,585.062683 
	C258.065430,587.210632 259.376678,588.488770 260.177460,589.861755 
	C267.074799,601.687317 275.397125,612.544434 283.259918,623.714417 
	C284.469360,625.432617 285.984192,626.461792 288.114624,626.872314 
	C298.512360,628.875793 308.675385,628.108276 318.539246,624.300171 
	C326.221741,621.334229 333.115875,616.961060 339.401947,611.665955 
	C344.979004,606.968140 348.740662,601.628540 349.923340,593.813232 
	C352.317230,577.994446 359.328613,564.045227 370.735779,552.570679 
	C376.720215,546.550903 383.792572,542.179993 392.019745,540.020386 
	C403.371307,537.040588 413.798492,538.974670 421.499207,548.241150 
	C429.436768,557.792664 430.543579,568.713745 425.185608,580.056702 
	C419.087463,592.966553 408.921204,601.775635 396.455505,608.200378 
	C388.437988,612.332520 379.996063,615.366699 371.315277,617.628418 
	C371.446228,631.076538 385.192902,641.391357 398.397919,638.231873 
	C407.108582,636.147766 414.336182,631.754395 420.446960,625.259033 
	C428.510773,616.687744 434.768005,606.892517 440.383942,596.631470 
	C442.034302,593.616028 441.944611,590.208618 442.664368,586.985168 
	C447.496002,565.347351 457.549225,547.418152 478.519043,537.606140 
	C491.401703,531.578186 503.607880,533.416565 511.709412,542.001099 
	C518.489441,549.185303 518.882202,561.485046 512.555969,568.512634 
	C507.913757,573.669434 502.385864,574.633057 496.933350,571.235901 
	C492.182007,568.275574 491.148651,563.838806 493.654480,557.316528 
	C493.935852,556.584229 494.045044,555.785767 494.288330,554.797485 
	C489.344055,553.650696 485.490143,555.596252 481.973053,558.107971 
	C465.498901,569.872925 457.585938,600.286072 466.074768,618.782227 
	C471.136414,629.810974 479.844025,633.614746 491.458496,629.979004 
	C497.632660,628.046326 503.038025,624.783752 507.623505,620.335876 
	C515.309265,612.880798 521.974548,604.538940 527.182922,595.172180 
	C529.800781,590.464111 529.488281,584.866394 530.689636,579.709595 
	C535.227417,560.230774 544.255615,543.505737 560.722839,531.667358 
	C572.067383,523.511597 584.231323,520.707214 596.687622,529.433228 
	C598.970520,528.949829 599.390808,526.835388 600.706848,525.644348 
	C604.303406,522.389038 608.385925,521.560913 612.681030,523.723145 
	C616.674744,525.733643 617.334595,529.357788 616.583313,533.529785 
	C612.226196,557.726196 607.926270,581.932800 603.653503,606.144226 
	C603.347229,607.879456 603.412170,609.680115 603.262939,612.134094 
	C609.489380,608.759644 613.289429,603.929810 617.155151,599.258545 
	C624.932312,589.860596 631.438232,579.558655 637.446045,568.986084 
	C640.608887,563.420105 640.377747,556.780029 641.594666,550.617371 
	C643.235291,542.309204 644.326599,533.893311 645.922852,525.575256 
	C646.800781,521.000549 648.727539,516.858398 653.979858,515.834595 
	C658.456482,514.962036 662.129944,516.356567 664.922485,520.136230 
	C666.789734,522.663391 665.873474,525.631897 666.652161,528.633423 
	C668.713318,528.217041 669.454468,526.429810 670.491394,525.112488 
	C683.095581,509.098602 701.525879,515.475342 709.319336,527.185120 
	C716.627686,538.166016 717.196533,550.244812 715.919067,562.717224 
	C714.861511,573.041992 711.837830,582.882812 707.768677,593.408630 
	C711.453125,591.940735 713.440857,589.593567 715.479797,587.421509 
	C728.070129,574.009338 736.678406,558.348389 743.771667,541.356812 
	C754.150208,516.495361 767.796875,493.335510 787.403992,474.388031 
	C799.488770,462.709900 812.885132,452.845490 830.007874,449.687439 
	C860.080383,444.140930 884.013000,471.206787 874.621460,500.348267 
	C870.091919,514.403198 861.268127,524.419556 846.135681,527.562195 
	C839.853088,528.866943 834.597595,526.226868 833.189880,521.224365 
	C831.754150,516.122498 834.521484,510.652161 840.599365,508.864471 
	C853.372620,505.107513 859.295288,489.200745 853.685669,478.975494 
	C849.687561,471.687622 841.283203,467.336548 833.082520,469.096893 
	C817.721619,472.394287 806.012451,481.638031 796.101990,493.211884 
	C769.770447,523.962952 754.866760,560.176880 746.400696,599.311951 
	C742.287903,618.323669 738.930176,637.486145 736.101379,656.736572 
	C735.835815,658.543579 735.499390,660.363342 734.954956,662.101807 
	C733.391357,667.094788 728.442566,670.540527 724.071350,669.815613 
	C718.648132,668.916138 715.265076,665.206604 715.802856,659.174500 
	C716.494446,651.417847 718.037659,643.734070 719.290894,636.031372 
	C721.129211,624.733398 723.035706,613.446472 725.106323,600.993652 
	C721.647644,604.008850 719.099426,606.452515 716.323730,608.602600 
	C711.056641,612.682495 705.452637,615.933472 698.417297,613.378479 
	C695.928223,612.474487 695.201599,614.554688 694.011658,615.728577 
	C688.367126,621.296875 682.307922,626.168640 674.310669,627.885010 
	C665.857422,629.699219 659.219177,624.427002 659.615723,616.382874 
	C659.800415,612.637207 661.540405,609.664124 664.862366,608.545105 
	C678.862976,603.828674 685.159851,592.467896 689.826843,579.869812 
	C693.729187,569.335876 695.735962,558.356201 694.659180,547.046753 
	C694.154175,541.741821 692.658447,536.472839 686.979309,534.654907 
	C681.187195,532.800842 676.642639,535.889526 672.999939,540.190002 
	C671.397522,542.081665 670.075562,544.229309 668.765198,546.346741 
	C660.687988,559.398743 658.281311,574.234497 655.251465,588.915222 
	C647.930908,624.385986 643.395264,660.467041 632.273254,695.108276 
	C627.310547,710.565308 620.310791,724.839539 606.831238,734.829285 
	C594.644897,743.860596 577.652710,744.432678 566.609924,736.431213 
	C553.591187,726.997803 547.387390,710.371643 551.863281,696.457275 
	C553.642700,690.925476 556.520203,686.057983 562.233521,683.693542 
	C566.508423,681.924438 570.801331,681.700317 574.225708,685.405945 
	C577.670776,689.134033 577.253662,693.265625 574.650391,697.323181 
	C572.063171,701.355713 570.186646,705.442688 572.002869,710.429504 
	C576.500122,722.777893 588.294556,725.443542 597.741028,716.123230 
	C606.106567,707.869324 609.884094,697.103088 613.474365,686.359619 
	C619.817993,667.376404 623.379822,647.726440 626.614563,628.028809 
	C627.617554,621.921082 630.092651,615.993713 629.397949,608.657898 
	C627.290710,611.489685 625.740723,613.572632 623.953613,615.920288 
M550.248901,591.504089 
	C549.205750,597.443359 549.148499,603.326050 550.217224,609.327637 
	C551.701904,617.664795 557.334900,620.501770 563.461365,614.825012 
	C572.925293,606.055786 580.788879,595.541382 585.004700,583.436768 
	C588.396240,573.698853 589.189453,562.999390 590.628296,552.655945 
	C591.772949,544.427246 586.781006,540.710693 578.733337,543.182434 
	C576.311401,543.926270 574.095520,545.041504 572.172302,546.674133 
	C558.608032,558.188660 552.365601,573.359009 550.248901,591.504089 
M370.759064,597.531311 
	C371.974182,598.967285 373.319305,597.896179 374.397034,597.490784 
	C385.200531,593.427246 394.460968,587.126526 401.765961,578.110901 
	C403.556335,575.901245 404.969604,573.435608 405.899689,570.739136 
	C407.150269,567.113708 407.567322,563.439270 404.498322,560.521362 
	C401.390411,557.566406 397.835358,558.172607 394.302460,559.934326 
	C388.650299,562.752930 384.159027,566.867249 380.690399,572.103210 
	C375.666290,579.687256 372.417419,588.004761 370.759064,597.531311 
z"/>
<path fill="#000000" opacity="1.000000" stroke="none" 
	d="
M569.056030,301.545044 
	C583.440979,301.745819 597.433594,301.792328 611.424927,301.947662 
	C616.743469,302.006683 622.091858,302.126801 626.985107,304.703217 
	C632.255737,307.478241 635.647461,311.686188 637.539429,317.392883 
	C638.880676,321.438721 637.494385,322.370361 633.716003,322.430634 
	C630.668274,322.479187 627.090393,321.073029 624.430298,324.624084 
	C627.574463,326.646698 630.800232,325.640839 633.815735,325.732513 
	C636.910156,325.826599 638.338623,326.871826 638.330933,330.149139 
	C638.260681,360.138306 638.516296,390.130432 638.169006,420.115814 
	C637.999146,434.777405 627.215332,443.901123 611.000610,443.922668 
	C570.015320,443.977112 529.029541,443.989716 488.044586,443.841278 
	C469.560944,443.774323 451.060822,444.704895 432.595093,443.376373 
	C421.751373,442.596222 414.559875,436.043793 412.843628,425.487366 
	C412.180725,421.409943 411.673645,417.297699 411.694000,413.098694 
	C411.824615,386.108856 411.903809,359.117340 411.707397,332.128510 
	C411.670227,327.019135 413.326385,325.392639 418.329590,325.657257 
	C425.307648,326.026306 432.320374,325.805511 439.316711,325.715302 
	C440.981262,325.693817 443.048950,326.484497 444.679504,323.217621 
	C433.833221,321.179718 423.124512,323.424896 412.784393,321.969269 
	C412.133270,310.970886 419.526703,302.696411 430.023529,302.696564 
	C445.845673,302.696777 461.657837,302.482269 477.469818,301.887177 
	C480.816406,301.761230 482.965454,300.706055 484.722321,297.755402 
	C488.383575,291.606293 492.517090,285.740326 496.287903,279.653534 
	C498.033234,276.836212 500.125244,275.569702 503.586090,275.612640 
	C518.078735,275.792419 532.575439,275.752991 547.069336,275.635956 
	C550.088135,275.611603 551.832336,276.732849 553.549072,279.211243 
	C558.651001,286.576569 562.504517,294.794647 569.056030,301.545044 
M484.576111,339.084534 
	C475.370087,350.443542 472.245026,363.620575 473.338470,377.904755 
	C475.543182,406.706635 497.762299,427.097839 528.428284,425.209686 
	C561.455566,423.176147 583.137939,391.199158 575.342590,358.985352 
	C568.928528,332.479950 544.165894,316.051270 517.275452,320.160736 
	C504.076202,322.177826 493.662323,328.703857 484.576111,339.084534 
M595.573608,389.017975 
	C595.776367,387.537231 595.919922,386.045593 596.190735,384.577393 
	C600.545471,360.971191 593.498352,340.620850 578.425415,322.603638 
	C576.816772,320.680756 575.049133,318.646851 571.968140,318.510315 
	C571.893860,321.855835 574.342041,323.138702 575.947998,324.880249 
	C588.953430,338.983704 594.437561,356.000397 593.942993,374.739502 
	C593.451294,393.371246 586.542236,409.688904 573.105835,422.977661 
	C571.935913,424.134705 569.979126,425.201080 571.908447,428.765442 
	C584.448669,418.193024 591.142334,404.792084 595.573608,389.017975 
M453.676544,383.873322 
	C455.570465,392.889923 457.108643,402.058807 463.800171,409.619324 
	C466.023193,406.652100 464.149353,405.005402 463.373505,403.406189 
	C458.967194,394.323853 456.121094,384.809937 455.858704,374.718170 
	C455.357178,355.427521 461.677429,338.538818 474.424072,324.036743 
	C475.613556,322.683411 477.631866,321.526367 476.732697,319.211151 
	C474.807159,318.427460 474.036865,319.776184 473.174713,320.665771 
	C469.462097,324.496368 466.128143,328.636749 463.472046,333.278839 
	C454.620544,348.748596 450.758057,365.229370 453.676544,383.873322 
M529.471985,301.669739 
	C533.636963,301.396790 537.915588,302.263611 542.392700,300.919312 
	C538.994934,297.352966 511.687286,297.385193 507.946930,301.670074 
	C515.451599,301.670074 521.966309,301.670074 529.471985,301.669739 
M614.190613,323.233612 
	C613.185303,320.357513 611.247742,318.938904 608.128967,319.307678 
	C605.913940,319.569611 604.444092,320.890564 603.702393,322.829742 
	C602.803223,325.180695 603.359619,327.410583 605.120850,329.243378 
	C606.814209,331.005493 609.016907,331.289398 611.086304,330.427460 
	C613.847229,329.277435 614.862244,326.897217 614.190613,323.233612 
z"/>
<path fill="#000000" opacity="1.000000" stroke="none" 
	d="
M754.645874,354.305725 
	C711.592712,292.794647 653.955994,252.825043 581.421082,235.045715 
	C549.770752,227.287781 517.557190,226.869080 485.277435,232.016449 
	C439.256531,239.354996 397.736908,257.246124 360.912201,285.574402 
	C306.903687,327.121643 271.484802,381.166718 254.363678,447.162384 
	C253.739929,449.566772 253.260269,452.117004 252.075241,454.243591 
	C249.958176,458.042877 246.580521,460.203094 242.075348,458.905853 
	C237.697998,457.645386 236.224289,454.250549 236.706406,449.945251 
	C237.488144,442.964050 239.686310,436.292419 241.748840,429.649841 
	C252.200470,395.989624 267.315582,364.555817 288.319092,336.193970 
	C332.921234,275.966003 391.110138,235.971085 464.597778,219.250504 
	C490.213379,213.422180 516.266724,211.065002 542.456482,212.830582 
	C600.140869,216.719376 651.886963,236.883850 698.200134,271.291382 
	C752.361816,311.529907 788.487000,364.302704 807.605652,428.865051 
	C810.076050,437.207306 808.701904,441.220520 803.186279,442.897461 
	C797.913818,444.500488 794.028442,441.291504 791.724976,433.452393 
	C783.449951,405.290833 771.429871,378.880219 754.645874,354.305725 
z"/>
<path fill="#000000" opacity="1.000000" stroke="none" 
	d="
M492.468018,774.562744 
	C506.466309,776.343628 520.066406,776.830017 533.737427,776.793518 
	C569.731140,776.697327 603.972778,768.771057 636.827881,754.433350 
	C660.932495,743.914307 683.305298,730.522949 703.410767,713.480957 
	C705.297791,711.881470 707.027161,710.096130 709.316589,707.938232 
	C699.977051,704.940247 691.183533,702.148987 682.411072,699.293152 
	C673.218811,696.300659 664.268005,692.696960 655.553162,688.508423 
	C653.093323,687.326294 650.966248,685.822693 649.826111,683.206360 
	C647.218872,677.223511 651.046326,671.928101 657.554199,672.513367 
	C661.625671,672.879578 665.184387,674.834351 668.906250,676.224060 
	C690.305176,684.214233 711.942993,691.471191 734.869629,693.264404 
	C760.589539,695.276245 785.924194,693.618042 808.967163,680.353638 
	C823.509705,671.982422 834.427307,660.360657 837.140320,643.001099 
	C838.726013,632.854919 835.546387,624.260559 826.960632,618.086304 
	C825.339417,616.920410 823.527832,615.998535 821.999084,614.729187 
	C818.586121,611.895508 817.635315,607.261902 819.845520,603.437134 
	C822.098267,599.538635 825.396973,597.321106 830.187439,598.316772 
	C843.708679,601.127075 855.997498,616.259216 857.293030,632.005188 
	C859.419495,657.849426 847.614075,677.003784 827.381042,691.375061 
	C808.378357,704.872375 786.528076,710.212463 763.473083,711.434937 
	C754.304138,711.921082 745.165100,711.729553 736.030151,711.218079 
	C732.729614,711.033325 730.376221,712.001282 728.041504,714.250977 
	C700.798279,740.502808 669.053284,759.731628 634.019226,773.576111 
	C603.735779,785.543274 572.245605,791.296021 539.634155,792.677734 
	C496.747986,794.494812 455.946686,786.950623 416.840363,769.541199 
	C414.385773,768.448364 411.919647,767.456543 410.761566,764.722595 
	C409.607208,761.997314 408.973816,759.269348 410.905121,756.664429 
	C412.856537,754.032410 415.554230,752.877930 418.792236,753.515625 
	C421.066925,753.963501 423.370026,754.501160 425.508118,755.372559 
	C447.000366,764.131470 469.068939,770.860779 492.468018,774.562744 
z"/>
<path fill="#000000" opacity="1.000000" stroke="none" 
	d="
M280.396912,777.725952 
	C269.339050,769.913818 262.489105,759.722046 261.100616,746.565308 
	C259.143951,728.024963 273.254486,710.271423 290.118286,711.658936 
	C297.937714,712.302307 305.514313,718.730896 307.185181,726.330688 
	C308.810272,733.722412 305.038208,741.083740 298.420929,743.434143 
	C293.223846,745.280212 289.336243,742.660461 285.179260,734.510925 
	C280.518860,739.439880 280.093872,745.818481 284.015991,752.227295 
	C288.203705,759.070068 294.159851,763.568542 301.886353,765.759949 
	C315.548157,769.634644 328.647095,767.074890 341.365570,761.945068 
	C361.002441,754.024780 378.050812,741.713867 395.218689,729.615540 
	C419.454163,712.536438 443.490051,695.142029 469.364960,680.542542 
	C496.881378,665.016724 525.990906,653.815186 557.504333,650.100708 
	C569.195618,648.722656 581.127625,648.930420 592.859314,651.071655 
	C594.160339,651.309143 595.466003,651.701416 596.673706,652.237671 
	C601.036255,654.174927 603.605103,658.398254 602.757690,662.059692 
	C601.799500,666.200256 597.782104,669.045532 592.655457,668.225403 
	C553.425171,661.949829 518.846008,675.648438 485.345947,693.370911 
	C453.601257,710.164734 425.012299,731.867554 395.595520,752.268188 
	C378.471649,764.143616 361.252350,776.008362 340.981140,781.992249 
	C320.485901,788.042297 300.075378,789.845398 280.396912,777.725952 
z"/>
<path fill="#000000" opacity="1.000000" stroke="none" 
	d="
M780.371216,612.450623 
	C791.504456,585.139832 798.800171,557.254395 801.676208,528.245178 
	C802.479553,520.142334 803.284546,512.030823 804.449585,503.975494 
	C805.320862,497.951385 808.820801,494.916107 813.475647,495.351440 
	C818.551514,495.826141 821.652649,499.530060 821.328674,505.592163 
	C819.741943,535.279419 814.610840,564.328796 805.484802,592.663025 
	C798.151001,615.432617 788.320801,637.052124 776.020142,657.547302 
	C774.231995,660.526611 772.132629,663.385254 769.796082,665.952820 
	C766.753723,669.295959 761.685242,669.686279 758.449951,667.255005 
	C755.308044,664.893921 754.528564,660.589844 757.194397,656.489929 
	C766.211182,642.622314 774.004333,628.134521 780.371216,612.450623 
z"/>
<path fill="#000000" opacity="1.000000" stroke="none" 
	d="
M459.773560,300.097961 
	C452.141968,300.083649 444.981171,299.902466 437.832458,300.119629 
	C433.743530,300.243835 431.796173,298.371368 431.845032,294.617798 
	C431.892365,290.981598 433.887329,288.715668 437.796143,288.707672 
	C445.284668,288.692383 452.773438,288.672546 460.261688,288.719330 
	C464.369598,288.744995 466.163452,290.995514 466.340118,295.013855 
	C466.539093,299.540924 463.845337,300.283234 459.773560,300.097961 
z"/>
<path fill="#000000" opacity="1.000000" stroke="none" 
	d="
M558.915649,353.259460 
	C571.413757,378.248138 558.406982,410.235657 524.771973,412.083252 
	C503.258972,413.265015 483.341614,390.717834 486.228546,369.290833 
	C488.632355,351.449738 497.524139,339.382996 515.160339,334.617004 
	C533.554199,329.646240 549.173096,336.347839 558.915649,353.259460 
M502.220947,363.558105 
	C507.141541,348.188385 519.162170,344.733215 534.000671,345.830475 
	C531.723328,342.666840 531.742371,342.549622 529.894409,342.249146 
	C519.720154,340.594727 511.298920,344.016266 504.324921,351.340698 
	C501.403534,354.408844 499.433472,358.069244 498.458984,362.203186 
	C498.200806,363.298187 497.994629,364.637848 499.368225,365.262695 
	C500.493439,365.774597 501.217590,364.970306 502.220947,363.558105 
M546.942749,392.428192 
	C548.380493,390.196594 549.945862,388.034180 551.207397,385.707031 
	C551.945679,384.345062 552.029846,382.584991 550.301025,381.816864 
	C548.385193,380.965698 547.798218,382.574707 547.116821,383.984772 
	C542.776489,392.966705 535.528198,397.293182 525.608521,397.389008 
	C523.918274,397.405304 521.857239,396.660248 520.787231,398.864227 
	C525.187927,404.379608 537.239868,401.567108 546.942749,392.428192 
z"/>
</svg>