<svg version="1.1" id="Layer_1" xmlns="http://www.w3.org/2000/svg" xmlns:xlink="http://www.w3.org/1999/xlink" x="0px" y="0px"
	 width="100%" viewBox="0 0 3182 300" enable-background="new 0 0 3182 300" xml:space="preserve">
<path fill="#000000" opacity="1.000000" stroke="none" 
	d="
M187.000000,1.000000 
	C1185.609741,1.000000 2184.219482,1.000000 3182.914551,1.000000 
	C3182.914551,100.937263 3182.914551,200.874619 3182.914551,300.906006 
	C2122.456543,300.906006 1061.912964,300.906006 1.184758,300.906006 
	C1.184758,201.000244 1.184758,101.000168 1.184758,1.000000 
	C58.777142,1.000000 116.440941,1.000000 174.889313,1.244526 
	C173.093170,5.090751 169.450989,8.340660 168.120026,12.356559 
	C163.033051,27.705545 158.127106,43.160469 154.210632,58.839874 
	C149.255203,78.678665 144.959686,98.704369 141.136307,118.793480 
	C139.501358,127.383995 136.683136,134.615128 129.597473,139.996780 
	C127.235603,141.790649 124.948189,143.947861 123.321083,146.399734 
	C114.357262,159.907303 100.443695,160.870804 86.000389,161.890182 
	C86.000389,147.758530 86.115128,134.114670 85.956406,120.474022 
	C85.864433,112.570473 85.581062,104.719681 90.065842,97.672882 
	C90.590050,96.849213 91.413536,95.917465 91.362335,95.080856 
	C91.193306,92.319054 91.543343,87.977516 90.106369,87.208237 
	C88.010834,86.086395 84.182678,86.852020 81.758980,88.102974 
	C79.679909,89.176086 78.461517,92.009224 76.994720,94.154411 
	C74.794571,97.372124 73.256714,101.258919 70.481712,103.829857 
	C58.519432,114.912491 46.204857,125.614708 34.027325,136.465286 
	C30.040041,140.018082 25.862398,141.275589 20.496759,139.178864 
	C17.726439,138.096313 14.308528,138.670975 10.024080,138.432266 
	C12.937922,142.891312 14.846897,145.812607 16.298056,148.033310 
	C12.251453,151.088440 8.385203,153.828674 4.766652,156.864166 
	C3.853844,157.629898 2.978483,160.020981 3.395431,160.482758 
	C4.471139,161.674118 6.203350,162.649963 7.807359,162.922226 
	C15.021424,164.146683 21.520994,161.537811 27.290211,157.759308 
	C30.210424,155.846710 32.210819,155.922318 34.862247,157.375015 
	C42.848690,161.750671 50.854401,166.091507 58.873688,170.406738 
	C66.811935,174.678375 75.796234,175.459778 84.168846,174.644287 
	C95.768639,173.514496 106.887428,169.239990 116.780052,162.664963 
	C122.952400,158.562561 128.879852,154.091705 134.901581,149.797363 
	C134.604675,155.272949 134.117264,160.851227 134.104797,166.430557 
	C134.100693,168.265366 135.326385,170.102905 135.989731,171.939209 
	C138.031616,171.087265 140.798157,170.793289 141.969971,169.271423 
	C144.715454,165.705795 146.981705,161.688309 148.934937,157.610855 
	C155.088531,144.765091 160.432495,131.488174 167.320389,119.060150 
	C169.852493,114.491402 175.329773,110.153931 180.335922,108.686310 
	C187.810486,106.495049 191.265976,106.864975 191.177856,116.337204 
	C191.077011,127.178688 191.788361,138.101944 193.147552,148.863266 
	C194.711304,161.244003 203.699020,169.148224 216.480225,169.103867 
	C229.609024,169.058289 241.036072,164.710678 251.563721,157.298553 
	C255.314117,167.863007 267.811157,176.209808 280.488342,169.769272 
	C290.581604,164.641449 298.747894,157.277374 304.692291,147.194855 
	C306.714813,160.098129 313.455261,168.444748 325.720337,172.358948 
	C339.027344,176.605637 352.420441,176.256012 365.232239,171.626495 
	C374.126465,168.412598 382.877655,164.222733 389.093689,156.071899 
	C398.140839,144.208817 401.914093,130.378601 405.555969,115.836105 
	C416.723236,114.013512 428.066772,112.162148 439.994812,110.215378 
	C439.994812,112.555817 440.144135,113.700493 439.971710,114.794449 
	C438.247406,125.734489 437.112671,136.820465 434.534210,147.558548 
	C431.731567,159.230377 438.857147,167.114410 449.648682,167.122101 
	C461.301758,167.130402 472.361420,164.926193 482.978729,160.402924 
	C485.194489,159.458954 486.387238,159.517441 487.805878,161.399338 
	C497.520081,174.285477 515.587585,179.558380 531.662598,173.192078 
	C541.528442,169.284851 550.329407,163.833008 558.221924,157.059814 
	C566.334412,150.097916 572.964294,141.665939 576.615967,131.441132 
	C577.348206,129.390991 575.923218,126.570457 575.492859,124.105133 
	C573.732056,125.530632 571.934265,126.914131 570.235413,128.409943 
	C569.786438,128.805237 569.750977,129.640106 569.342468,130.115799 
	C556.391418,145.196716 542.651428,159.268387 521.476501,161.665298 
	C512.857971,162.640854 504.132294,162.965378 496.114655,158.072220 
	C487.779755,152.985443 486.657623,145.978714 493.298798,139.138321 
	C496.382812,135.961777 499.137970,132.465973 502.399597,129.059967 
	C505.542816,126.350685 508.328705,123.696312 511.422424,120.909668 
	C514.111206,118.057442 517.054993,115.647934 518.760437,112.555443 
	C522.801514,105.227577 527.432922,97.900703 529.622742,89.965492 
	C531.928711,81.609795 526.416626,75.387032 516.426575,77.232933 
	C505.800354,79.196396 497.148071,84.262642 491.225433,93.347008 
	C483.227753,105.614220 476.301086,118.465050 477.142334,133.704758 
	C477.498535,140.158157 479.419647,146.525192 480.620300,152.882538 
	C477.823700,153.476990 474.359528,154.351486 470.846680,154.930466 
	C464.106903,156.041336 457.366577,157.375610 450.573059,157.845779 
	C446.700409,158.113800 443.437531,156.089020 444.014557,151.226974 
	C445.131866,141.812332 446.318939,132.405884 447.504791,122.999535 
	C448.541260,114.777840 449.615692,106.560936 450.839600,97.050026 
	C435.999786,100.553528 422.728638,103.686684 409.245819,106.869812 
	C410.992462,103.492691 412.607178,100.485603 414.117706,97.427086 
	C417.632660,90.310112 414.560822,83.864967 408.638733,80.820450 
	C401.469055,77.134537 395.308441,79.723152 389.269836,83.014862 
	C377.892365,89.216812 376.638885,105.896461 386.876801,113.300735 
	C388.693939,114.614922 390.854401,115.454330 393.044647,116.612572 
	C389.684967,127.079170 386.343384,137.489349 383.016846,147.852737 
	C378.209656,146.738663 377.032837,146.792313 372.265167,153.429657 
	C364.954865,163.606750 355.374512,167.712128 343.110626,167.051025 
	C327.670868,166.218719 316.352905,156.662323 315.952606,139.746780 
	C315.638062,126.454834 318.274506,113.787186 322.880585,101.419556 
	C324.086395,98.181870 323.839874,96.382431 319.658234,94.662529 
	C309.770050,90.595551 300.440125,91.451103 291.437347,96.070496 
	C285.846497,98.939217 280.792603,102.937241 275.731445,106.739532 
	C261.979889,117.070641 252.858307,130.334229 250.526642,147.643036 
	C249.248108,147.987717 247.953979,148.203979 246.762970,148.678848 
	C237.883606,152.219086 228.892792,155.521286 220.203552,159.482910 
	C213.922058,162.346802 207.896103,161.706329 205.449509,153.734253 
	C203.648621,147.866135 202.655579,141.652481 202.108231,135.520859 
	C201.344513,126.965309 201.374374,118.340759 200.984222,109.749390 
	C200.699860,103.487633 198.330002,99.581841 193.830124,99.117485 
	C185.708130,98.279343 177.509094,98.790054 170.782440,103.919594 
	C164.798813,108.482536 159.501099,113.944923 153.038696,119.789909 
	C154.661407,115.065376 155.410995,110.769226 157.482437,107.251465 
	C163.498047,97.035652 170.065979,87.145950 176.376221,77.102554 
	C186.179184,61.500134 192.464935,44.911102 192.137650,26.057831 
	C191.984879,17.256027 190.399246,9.007721 187.000000,1.000000 
M911.708679,135.684937 
	C911.833435,135.813705 911.958191,135.942459 912.009583,136.865723 
	C910.762451,141.716568 908.932800,146.502670 908.385010,151.431244 
	C907.098633,163.005157 907.479736,171.242676 921.778992,173.575226 
	C927.068787,174.438110 933.025879,172.497055 938.445801,170.994781 
	C948.201050,168.290817 953.525513,160.523438 957.935974,152.127243 
	C960.613831,147.029449 962.915955,141.734299 965.799011,135.659393 
	C965.681396,168.041550 992.625916,173.760956 1015.541504,163.405045 
	C1016.614136,167.907059 1019.523743,169.220444 1024.200195,167.322205 
	C1031.414551,164.393829 1036.717041,159.189224 1040.992065,152.892838 
	C1047.662231,143.068771 1051.489502,132.005798 1053.825562,120.510139 
	C1054.637207,116.516426 1056.812134,115.547966 1059.958008,115.018234 
	C1069.835449,113.354935 1079.722900,111.751183 1090.145630,110.035629 
	C1089.482056,114.228638 1088.862915,117.718369 1088.386963,121.227562 
	C1086.895630,132.224319 1085.188721,143.201981 1084.107544,154.240158 
	C1083.519287,160.245560 1086.587524,164.903320 1092.488037,165.768433 
	C1099.183594,166.750137 1106.289795,166.906479 1112.931030,165.760895 
	C1120.490723,164.456894 1127.767944,161.414948 1135.072388,158.856033 
	C1135.999268,158.531326 1136.859741,156.531113 1136.791992,155.362900 
	C1136.744873,154.552658 1135.110840,153.303619 1134.082153,153.189774 
	C1131.814453,152.938782 1129.444580,153.056137 1127.180908,153.422195 
	C1118.208374,154.873077 1109.748901,159.037643 1100.290894,158.079117 
	C1096.016479,157.645889 1093.637573,155.827454 1094.057617,151.584930 
	C1095.072876,141.332275 1096.362305,131.106445 1097.576538,120.873985 
	C1098.472534,113.323212 1099.424072,105.779037 1100.489746,97.101776 
	C1085.841919,100.525551 1072.526733,103.637810 1058.381348,106.944153 
	C1060.030518,104.535751 1061.375488,102.909004 1062.354614,101.085808 
	C1067.727295,91.080322 1065.852417,81.704315 1053.832886,79.192032 
	C1046.395020,77.637375 1035.184326,82.707245 1031.762939,90.921768 
	C1027.070435,102.188286 1027.707153,108.903587 1039.852539,114.981796 
	C1040.833252,115.472641 1041.783813,116.023949 1042.706055,116.524147 
	C1038.163696,129.083557 1036.553833,142.575409 1029.612915,152.050171 
	C1025.422729,152.317139 1022.390991,151.905823 1019.806763,152.795029 
	C1013.536682,154.952530 1007.421509,157.593903 1001.343201,160.266205 
	C994.605469,163.228439 988.541504,162.873718 982.547363,158.176254 
	C976.827759,153.693954 975.371643,147.597610 975.044861,141.023483 
	C974.387512,127.803696 975.399475,114.690453 977.895813,101.668564 
	C978.291016,99.607124 979.123596,95.679390 975.167725,96.283005 
	C973.220581,96.580109 970.911377,99.466049 970.169312,101.656013 
	C968.673889,106.069160 968.491760,110.914192 967.141235,115.392067 
	C963.046021,128.969650 955.766602,140.864258 946.746155,151.677261 
	C940.706909,158.916595 933.301086,164.145142 923.524902,164.980438 
	C918.049866,165.448227 915.686584,163.694458 916.127258,158.570831 
	C916.554199,153.606232 917.437927,148.515503 919.152649,143.860199 
	C923.184021,132.916183 927.893311,122.223671 932.201355,111.379005 
	C934.203735,106.338539 935.173096,101.188797 931.718201,95.037674 
	C928.245056,101.512489 924.535706,107.069229 922.183105,113.150787 
	C919.112854,121.087364 915.276917,127.517799 906.500122,130.232224 
	C898.631042,132.665909 891.165283,136.443558 883.255310,138.691681 
	C877.488281,140.330750 871.288452,140.447021 863.995667,141.412369 
	C866.785522,136.533997 868.805908,132.850525 870.966309,129.251160 
	C878.362061,116.929657 878.537537,103.327110 877.852905,89.635155 
	C877.779846,88.174767 876.140015,86.450958 874.782471,85.456116 
	C869.107605,81.297531 860.372314,81.969971 855.407410,87.166626 
	C841.061707,102.182198 840.579956,120.940514 841.480835,140.032532 
	C841.703735,144.756882 845.677734,149.679169 839.667114,154.002655 
	C833.547791,158.404404 826.964661,161.150787 819.608826,161.934479 
	C813.342346,162.602127 806.561951,158.640762 806.128357,153.837067 
	C804.928894,140.546921 806.526123,127.991646 816.602356,117.812782 
	C823.258423,111.088867 830.734436,105.787285 839.426575,102.031998 
	C841.181152,101.273933 842.322327,99.095863 843.746338,97.572472 
	C842.209656,96.410950 840.762939,94.440170 839.117432,94.257141 
	C835.740906,93.881577 832.102234,93.888695 828.850159,94.768417 
	C821.415405,96.779556 815.462341,101.077484 810.904297,107.497551 
	C804.154785,117.004333 798.234070,126.735504 796.863342,138.690109 
	C796.475342,142.073990 795.892944,146.774658 793.632812,148.372787 
	C783.889648,155.262222 773.489929,161.223145 762.090271,168.290176 
	C763.649719,157.127304 765.048462,147.105026 766.450256,137.083191 
	C767.964539,126.257759 769.531677,115.439384 770.971130,104.604034 
	C771.489380,100.702560 768.239990,99.781685 765.631104,99.485626 
	C763.174927,99.206894 761.224487,100.850143 760.972046,103.804077 
	C760.820740,105.574600 760.428772,107.340897 759.983337,109.067390 
	C756.062012,124.267204 753.001221,139.645325 743.234802,152.801132 
	C737.796265,160.126984 731.056763,163.363174 722.595032,163.845444 
	C719.949951,163.996185 716.862793,162.761581 717.052307,159.091980 
	C717.510437,150.218506 717.926086,141.328873 718.848877,132.496964 
	C719.968933,121.777817 721.824768,111.132927 722.824036,100.405754 
	C723.054504,97.931641 721.096985,95.253700 720.146301,92.669556 
	C719.475403,92.554077 718.804504,92.438591 718.133606,92.323112 
	C716.408020,94.515739 713.806396,96.458344 713.097717,98.941216 
	C708.171692,116.200539 707.273743,133.927155 708.075867,151.750092 
	C708.264221,155.934494 709.009521,160.192459 710.199280,164.209030 
	C711.811951,169.653305 716.915833,173.467926 721.765381,172.915024 
	C728.625793,172.132889 735.114258,170.086334 740.326416,165.173416 
	C744.768127,160.986755 749.210449,156.800842 753.999573,152.287506 
	C753.999573,155.680588 754.237732,158.673019 753.953979,161.615112 
	C753.168579,169.757339 752.585754,177.735687 745.188416,183.645493 
	C740.970642,187.015091 738.099121,192.127823 734.816040,196.598602 
	C724.873657,210.137802 716.475220,224.592438 709.568115,239.905991 
	C703.144653,254.147247 698.317810,268.732788 698.941956,284.695648 
	C699.275208,293.218994 703.840088,297.995148 712.496277,297.999634 
	C715.662720,298.001282 718.841614,298.181946 721.993469,297.967743 
	C734.333801,297.129120 744.741760,290.236908 749.101807,278.219574 
	C754.529785,263.259033 754.790955,247.517456 757.047974,232.064545 
	C758.883301,219.499100 760.651794,206.883270 763.457520,194.518417 
	C764.737488,188.877655 767.362976,182.747269 771.282410,178.668976 
	C778.993835,170.645065 788.035583,163.899673 796.785889,156.403641 
	C797.176636,157.617966 797.690552,158.881073 797.985229,160.193420 
	C798.899475,164.264725 801.086426,167.566330 804.998108,168.880753 
	C814.507507,172.076202 823.916382,171.633896 832.785645,166.594727 
	C836.031616,164.750443 838.868469,162.150360 842.183716,160.471008 
	C849.006775,157.014709 854.752502,151.073471 863.243896,151.308594 
	C865.840332,151.380508 868.474548,150.893585 871.058899,150.466141 
	C885.486877,148.079788 898.798218,142.699249 911.708679,135.684937 
M2041.660156,120.840714 
	C2042.811523,119.241127 2043.962891,117.641541 2045.573364,115.910492 
	C2045.867065,115.725952 2046.023438,115.460510 2046.657715,114.843117 
	C2047.476807,113.576134 2048.295898,112.309151 2049.743164,110.765190 
	C2055.664551,103.089149 2059.739746,94.823662 2059.083496,84.708656 
	C2058.845947,81.044983 2057.543457,78.911377 2054.003906,77.926506 
	C2045.543701,75.572777 2037.978394,78.373421 2031.565430,83.160873 
	C2014.717651,95.738335 2007.762085,113.866005 2006.311279,134.014511 
	C2005.866333,140.194839 2009.126831,146.641983 2010.544678,152.376740 
	C2008.269531,153.339813 2005.475952,154.488373 2002.709717,155.699646 
	C1994.428467,159.325867 1986.351807,163.542831 1977.830322,166.464462 
	C1968.619995,169.622238 1958.402100,165.680069 1953.617798,158.070023 
	C1944.075317,142.891586 1945.683350,127.380821 1952.723633,111.871284 
	C1953.141479,110.950844 1954.938354,110.127068 1956.075195,110.150391 
	C1962.326904,110.278618 1968.645874,111.427307 1974.803467,110.821060 
	C1983.979004,109.917686 1989.748779,104.500412 1989.693604,94.873573 
	C1977.402222,95.928261 1966.040527,103.005249 1953.042969,100.563210 
	C1953.042969,99.802109 1952.883057,98.967934 1953.066406,98.217606 
	C1957.455688,80.251472 1961.924438,62.304543 1966.233276,44.319260 
	C1966.647461,42.590210 1966.325195,40.589153 1965.961182,38.792091 
	C1965.444092,36.239906 1963.869995,35.401207 1961.993408,37.595284 
	C1959.910034,40.031258 1957.240967,42.498463 1956.428345,45.400482 
	C1952.013184,61.165798 1948.061646,77.061745 1944.019897,92.930397 
	C1942.765503,97.855461 1939.476318,100.759720 1934.294434,100.975960 
	C1931.299927,101.100906 1928.289551,100.879868 1925.297852,101.035103 
	C1922.022827,101.205040 1918.721069,105.200958 1919.033813,108.628967 
	C1919.375366,112.371185 1922.317261,112.106728 1924.894653,111.969109 
	C1929.508667,111.722740 1934.112793,111.288406 1938.835938,110.923782 
	C1937.619019,126.439125 1936.309204,142.405853 1942.216309,156.973068 
	C1932.609375,160.036697 1923.189331,163.000290 1913.798340,166.052811 
	C1909.222778,167.540115 1905.060791,169.767944 1899.722656,168.437149 
	C1888.889771,165.736542 1884.213867,155.446762 1884.212158,143.981293 
	C1884.209595,127.089783 1887.914551,110.689781 1894.467285,95.018867 
	C1895.740234,91.974602 1896.761841,89.127274 1892.709473,86.852798 
	C1888.916016,84.723618 1886.515259,86.807907 1885.427856,89.402664 
	C1882.562378,96.240623 1879.901855,103.257034 1878.160400,110.444817 
	C1876.707520,116.441269 1876.355591,122.767487 1876.088501,128.972290 
	C1875.755005,136.718094 1876.008423,144.489166 1876.008423,153.642838 
	C1868.067139,154.970596 1859.057373,156.955917 1849.940552,157.850327 
	C1842.600586,158.570404 1839.913208,154.846344 1841.019287,147.455658 
	C1843.453857,131.190079 1845.852173,114.919098 1848.494385,97.104904 
	C1833.856323,100.521706 1820.207397,103.707588 1806.495361,106.908226 
	C1808.440186,103.303322 1810.525635,100.153229 1811.915283,96.721306 
	C1815.466553,87.950851 1810.358398,81.160553 1801.894653,79.114693 
	C1793.744141,77.144531 1780.067749,86.197159 1778.020386,94.450592 
	C1775.474854,104.711304 1776.936279,108.467377 1785.814453,114.277748 
	C1787.148682,115.150932 1788.595459,115.852203 1790.219971,116.761673 
	C1785.880737,128.983444 1784.073486,142.030121 1777.237427,152.027695 
	C1773.108887,152.289688 1769.696777,151.802979 1766.829102,152.832458 
	C1760.580200,155.075760 1754.565918,158.000015 1748.534790,160.815140 
	C1741.608521,164.048111 1731.486328,161.121994 1726.929810,155.054810 
	C1721.864746,148.310211 1722.318481,140.298325 1722.324463,132.946289 
	C1722.332642,122.737411 1724.624634,112.533722 1725.876831,102.320198 
	C1726.192139,99.749542 1726.746338,96.280510 1723.108887,96.343536 
	C1721.380005,96.373497 1718.428467,99.287605 1718.216553,101.144539 
	C1717.090332,111.012810 1714.007568,120.323997 1709.370483,128.826385 
	C1704.566895,137.633835 1698.701172,145.982117 1692.422607,153.829163 
	C1686.861694,160.779312 1679.162109,164.796051 1669.876831,165.024124 
	C1665.515869,165.131226 1663.529663,162.552567 1663.244873,158.824677 
	C1663.068115,156.512253 1663.859863,153.999588 1664.698608,151.757019 
	C1669.119507,139.936661 1673.753296,128.196014 1678.190063,116.381485 
	C1680.530518,110.149193 1683.472534,103.904884 1679.956421,96.103958 
	C1678.641479,97.519623 1677.479126,98.332542 1676.915405,99.448090 
	C1672.873779,107.446182 1668.990356,115.524300 1664.951050,123.523621 
	C1664.427246,124.561005 1663.457886,125.644470 1662.425781,126.109779 
	C1655.946411,129.031113 1649.444946,131.918213 1642.847778,134.559647 
	C1633.120361,138.454468 1623.082764,141.009720 1612.180420,140.863419 
	C1615.054443,135.387589 1617.782593,130.209839 1620.492554,125.022591 
	C1626.191895,114.112740 1626.455566,102.308197 1625.833862,90.453201 
	C1625.739746,88.659073 1624.090942,86.279999 1622.480225,85.346619 
	C1615.311890,81.192612 1605.470337,81.932098 1599.981689,90.090515 
	C1588.260742,107.512177 1587.234985,126.748123 1590.231323,146.712372 
	C1590.434814,148.068283 1590.251831,149.894531 1589.477295,150.918930 
	C1583.829956,158.388458 1575.658813,161.049271 1566.821533,161.932938 
	C1561.088135,162.506241 1555.122925,159.631561 1554.363403,155.428894 
	C1553.447998,150.363983 1553.089966,144.978729 1553.740723,139.892120 
	C1555.584106,125.485588 1564.610718,115.693802 1576.175049,108.055984 
	C1581.114014,104.793922 1586.613770,102.380821 1593.030029,98.956841 
	C1590.308350,96.952034 1588.469238,94.541130 1586.292114,94.182472 
	C1578.286865,92.863815 1570.780029,94.833145 1564.974609,100.619530 
	C1548.151489,117.387520 1539.635010,136.980606 1546.149658,161.002869 
	C1546.867920,163.652023 1549.170532,166.527878 1551.545776,167.948486 
	C1558.720581,172.239548 1566.985718,172.142471 1574.145630,169.028427 
	C1583.292114,165.050400 1591.594360,159.150635 1600.345825,154.230896 
	C1602.254272,153.158020 1604.473145,152.468857 1606.635620,152.046997 
	C1613.971069,150.616074 1621.581177,150.131073 1628.649780,147.901169 
	C1639.243652,144.559204 1649.467773,140.045441 1659.806274,136.046570 
	C1659.750122,136.294968 1659.470093,137.309586 1659.295288,138.342041 
	C1658.183960,144.905838 1656.816162,151.441605 1656.061157,158.046997 
	C1654.695190,169.996613 1662.470093,174.096039 1672.268677,173.830460 
	C1686.547363,173.443420 1698.119141,167.663834 1704.567261,153.959000 
	C1707.311035,148.127319 1710.324219,142.422409 1713.214966,136.659882 
	C1714.000244,138.732544 1713.855469,140.647049 1714.026001,142.533081 
	C1714.666748,149.624512 1716.477417,156.270599 1722.274658,161.034332 
	C1732.879395,169.748489 1744.696777,169.536331 1756.973633,165.525818 
	C1759.775146,164.610657 1762.277954,162.753922 1764.919556,166.657059 
	C1765.790405,167.943741 1770.701050,168.122833 1772.422607,166.907516 
	C1777.966797,162.993698 1783.790771,158.888062 1787.855225,153.589539 
	C1796.181396,142.735184 1800.013428,129.738541 1802.451660,115.928810 
	C1813.715088,114.059074 1825.049316,112.177612 1836.994751,110.194656 
	C1836.994751,113.225830 1837.220581,115.048515 1836.957886,116.797852 
	C1835.337158,127.591537 1834.499878,138.613052 1831.638672,149.076645 
	C1829.197021,158.006485 1836.856445,167.230072 1846.133179,167.130295 
	C1855.907349,167.025162 1865.340210,165.674347 1874.645874,162.817871 
	C1875.857300,162.446030 1878.427979,162.873703 1878.686035,163.561981 
	C1883.729248,177.012726 1895.773926,177.292160 1906.518677,176.606888 
	C1920.469971,175.717102 1933.319702,169.898422 1944.328125,161.613358 
	C1948.772339,166.560349 1953.157227,171.487152 1960.023682,171.939240 
	C1967.494141,172.431137 1975.130859,172.810822 1982.504028,171.818527 
	C1994.392822,170.218460 2006.081299,167.339874 2015.584106,159.178604 
	C2024.527100,171.860413 2040.278442,179.270554 2055.480713,174.922806 
	C2076.268066,168.977783 2092.211914,156.426468 2103.395508,137.981964 
	C2105.189209,135.023560 2106.091797,131.420837 2106.839600,127.992271 
	C2107.082275,126.880623 2105.515381,125.374207 2104.775879,124.048447 
	C2103.421875,124.925903 2101.826172,125.585114 2100.781250,126.741837 
	C2099.726807,127.909386 2099.526611,129.883789 2098.424072,130.967865 
	C2085.052490,144.116684 2073.188965,159.381805 2052.304688,161.454422 
	C2042.271606,162.450119 2032.713745,162.475769 2023.834229,156.976059 
	C2017.800049,153.238831 2016.854126,145.693115 2021.809937,140.683884 
	C2028.242310,134.181976 2034.633301,127.639084 2041.660156,120.840714 
M2266.291260,114.314774 
	C2266.166748,114.185997 2266.041992,114.057228 2265.990234,113.143669 
	C2268.860596,103.037048 2271.990234,92.991615 2274.400879,82.776505 
	C2274.935303,80.511711 2273.692383,76.395050 2271.935059,75.330284 
	C2268.618164,73.319992 2266.432373,76.199753 2265.253662,79.402328 
	C2254.846436,107.685951 2244.393311,135.952911 2234.117188,164.284088 
	C2233.446289,166.133621 2234.118652,168.470352 2234.166016,170.580399 
	C2236.260742,170.061707 2239.002197,170.209076 2240.339600,168.910522 
	C2246.556641,162.874863 2252.734863,156.730789 2258.277832,150.084045 
	C2269.168213,137.024429 2279.344971,123.363167 2290.400635,110.450653 
	C2295.050049,105.020294 2301.066162,100.712891 2306.730469,96.236038 
	C2307.931152,95.287148 2310.306641,95.824829 2312.140869,95.677620 
	C2312.118896,97.339966 2312.467773,99.110474 2312.019287,100.648460 
	C2305.987793,121.329247 2299.750488,141.950638 2293.865479,162.672363 
	C2293.221680,164.940079 2294.447021,167.738739 2294.805176,170.291107 
	C2297.509766,169.711288 2300.301025,169.368942 2302.874023,168.428802 
	C2303.833252,168.078293 2304.326904,166.355820 2304.956787,165.216919 
	C2309.756104,156.539185 2314.012939,147.505661 2319.454834,139.253052 
	C2326.353271,128.792007 2333.708984,118.539581 2341.793213,108.980179 
	C2349.842285,99.462440 2359.399658,91.415886 2372.509766,86.673615 
	C2371.417969,92.942627 2370.594482,98.529243 2369.453613,104.050285 
	C2366.670410,117.518547 2361.897949,130.549728 2363.838379,144.849228 
	C2365.903076,160.065445 2375.710205,169.280014 2390.424316,170.841309 
	C2407.889648,172.694504 2424.480957,168.256104 2440.038330,161.553741 
	C2442.032471,163.727325 2443.607422,166.561691 2446.011719,167.863037 
	C2454.452881,172.431412 2463.444824,171.654755 2471.950195,168.288986 
	C2476.851074,166.349716 2481.115479,162.776825 2485.621338,159.869751 
	C2492.464600,155.454803 2499.364014,151.541611 2507.868164,150.916779 
	C2520.980713,149.953384 2533.384766,146.054199 2545.010986,139.942886 
	C2550.669189,136.968719 2556.048340,133.464432 2562.479980,129.651031 
	C2558.139893,140.857742 2553.978760,151.152985 2550.225586,161.594818 
	C2549.230469,164.363647 2548.207275,169.401932 2549.414551,170.253281 
	C2552.961914,172.754761 2555.890381,169.253876 2558.584961,166.898880 
	C2558.960449,166.570679 2559.321045,166.218704 2559.647217,165.841751 
	C2565.990967,158.507568 2572.483398,151.294876 2578.631104,143.799942 
	C2587.963623,132.422989 2596.724365,120.559441 2606.395752,109.485840 
	C2610.961426,104.258743 2616.997559,100.282036 2622.564941,95.995659 
	C2623.569824,95.222168 2626.072266,95.068321 2626.907471,95.777573 
	C2627.724365,96.471306 2627.747314,98.767708 2627.343506,100.131264 
	C2621.136230,121.101341 2614.709717,142.007263 2608.645508,163.018005 
	C2608.062256,165.038834 2608.824707,168.713928 2610.274170,169.706818 
	C2611.783203,170.740601 2615.114746,169.964188 2617.209961,169.012131 
	C2618.771973,168.302261 2619.843018,166.167191 2620.772705,164.469437 
	C2624.976074,156.792801 2628.469971,148.658035 2633.305908,141.413361 
	C2640.987061,129.905487 2649.075928,118.598854 2657.852783,107.914154 
	C2665.468506,98.642982 2675.078125,91.477440 2687.468262,86.606949 
	C2686.680908,91.679375 2686.115723,95.990410 2685.330322,100.260948 
	C2682.704346,114.536049 2677.331055,128.290924 2678.852783,143.324768 
	C2680.003418,154.693497 2686.355713,165.671005 2698.000488,169.056091 
	C2710.041016,172.556259 2722.047119,171.731445 2733.903076,168.484711 
	C2743.223633,165.932312 2753.119141,164.501816 2760.505859,157.263626 
	C2763.349121,160.353378 2765.979980,163.780670 2769.169189,166.569656 
	C2778.142334,174.417038 2788.493652,177.890213 2800.421631,175.174545 
	C2819.869629,170.746658 2834.604248,159.225937 2846.497070,143.796768 
	C2849.515625,139.880310 2851.695557,135.187210 2853.530518,130.561172 
	C2854.153076,128.991257 2852.526367,126.529243 2851.927246,124.474899 
	C2850.521973,124.917824 2848.140381,125.032593 2847.864014,125.854881 
	C2845.329590,133.396667 2838.658936,137.373276 2833.675781,142.743851 
	C2820.222168,157.242752 2803.448242,163.959076 2783.808838,161.736984 
	C2778.526123,161.139297 2772.992188,158.147339 2768.672852,154.825195 
	C2763.326660,150.713440 2763.805176,145.675385 2768.471191,141.011475 
	C2774.717285,134.767792 2781.188477,128.731247 2787.158691,122.233841 
	C2795.006348,113.693298 2802.815186,104.867256 2805.297852,93.102715 
	C2807.460449,82.854149 2806.456787,77.523483 2796.565186,77.163040 
	C2789.344238,76.899918 2782.136963,79.199112 2776.710938,84.017845 
	C2762.112061,96.983185 2754.403564,113.743843 2753.256592,133.056488 
	C2752.883789,139.335098 2755.521729,145.792526 2756.853516,152.526123 
	C2742.774170,157.942886 2728.020508,163.016953 2711.932861,162.000504 
	C2698.399902,161.145447 2688.194580,153.001907 2687.900879,137.771729 
	C2687.665771,125.595360 2691.068115,114.229713 2694.027344,102.686516 
	C2695.917969,95.311264 2697.752197,87.878624 2698.860107,80.360954 
	C2699.589111,75.413094 2696.801025,72.814583 2691.985840,73.194672 
	C2689.309570,73.405922 2686.411133,74.146629 2684.133301,75.514816 
	C2670.524170,83.688889 2659.965332,95.374779 2649.078857,106.650993 
	C2643.245850,112.692604 2637.568604,118.884430 2631.821045,125.008461 
	C2631.513184,121.991684 2632.009033,119.520576 2632.481934,117.045059 
	C2634.439941,106.791824 2637.858887,96.765556 2637.032227,86.084427 
	C2636.725098,82.115776 2634.767822,79.485374 2630.895264,80.165367 
	C2627.227295,80.809425 2623.269287,82.132225 2620.361572,84.360573 
	C2609.451172,92.721375 2598.939453,101.601143 2588.227539,110.223541 
	C2585.769775,112.201973 2583.110596,113.930504 2579.925293,116.218513 
	C2582.966797,107.181221 2585.857422,99.270744 2588.239502,91.209930 
	C2589.334961,87.502670 2589.889893,83.485626 2589.763184,79.639633 
	C2589.710938,78.053215 2587.501465,75.909325 2585.776611,75.156166 
	C2583.290283,74.070412 2581.858398,75.718323 2580.939209,78.365822 
	C2575.365234,94.419411 2569.583496,110.400795 2564.303955,125.193054 
	C2561.822998,125.463799 2560.052979,125.296761 2558.581055,125.881149 
	C2552.851562,128.155991 2547.233643,130.709412 2541.542969,133.085236 
	C2530.663086,137.627747 2519.418701,140.612595 2507.104492,140.971802 
	C2508.825195,137.494385 2510.150635,134.142960 2512.030273,131.138107 
	C2518.850098,120.236099 2521.397461,108.329926 2521.015381,95.624435 
	C2520.768555,87.404526 2518.949463,84.705032 2512.267578,83.136681 
	C2505.124023,81.459930 2497.895752,85.057846 2493.803955,91.467232 
	C2488.701660,99.459557 2484.965332,107.849838 2484.890625,117.420113 
	C2484.813965,127.240555 2485.246826,137.064224 2485.341797,146.887619 
	C2485.355469,148.293274 2485.142090,150.038910 2484.324951,151.060303 
	C2478.660645,158.141617 2470.787109,161.034073 2462.102295,161.951187 
	C2454.763184,162.726227 2449.029785,158.911667 2448.172119,152.020340 
	C2446.324951,137.177307 2450.973389,124.142151 2462.331055,114.566208 
	C2469.514648,108.509583 2478.235352,104.276077 2486.833984,98.868027 
	C2486.189697,96.164185 2483.873291,94.318367 2479.685059,93.930878 
	C2466.994629,92.756767 2458.797607,99.995354 2452.109131,109.073563 
	C2443.204834,121.159508 2437.460693,134.533951 2438.874512,150.145935 
	C2439.007324,151.610291 2437.720459,154.222122 2436.522217,154.631699 
	C2423.346680,159.135147 2409.991455,163.503616 2395.827881,161.878052 
	C2386.182373,160.771011 2376.962402,158.376556 2374.268555,144.935928 
	C2372.674561,136.982819 2373.237793,128.203903 2374.681152,120.126930 
	C2376.898438,107.719666 2380.766113,95.611397 2383.818359,83.347572 
	C2385.421143,76.907654 2383.117920,73.288475 2376.970703,73.190247 
	C2374.353516,73.148430 2371.418945,74.146744 2369.128906,75.511780 
	C2354.604492,84.169395 2343.607422,96.824936 2332.042969,108.817116 
	C2326.908447,114.141594 2321.877930,119.566528 2316.800293,124.945877 
	C2316.411865,121.602165 2317.025879,118.819801 2317.474121,116.010994 
	C2319.013916,106.365685 2320.840088,96.747406 2321.862305,87.045654 
	C2322.418945,81.763939 2318.935303,79.137199 2313.713623,80.084061 
	C2311.375244,80.508080 2308.820312,81.264885 2306.986572,82.678734 
	C2299.598389,88.375435 2292.496826,94.441940 2285.205078,100.266380 
	C2279.083740,105.156006 2272.845459,109.899292 2266.291260,114.314774 
M2996.072021,77.734657 
	C2999.044678,66.275566 3002.200684,54.858315 3004.833252,43.321629 
	C3005.351807,41.049973 3003.851562,38.317680 3003.282471,35.797832 
	C3002.677734,35.711834 3002.073242,35.625835 3001.468506,35.539837 
	C2999.313232,38.315495 2996.104980,40.781544 2995.181885,43.919693 
	C2990.840088,58.681969 2986.681641,73.530067 2983.342285,88.544281 
	C2981.110352,98.579491 2978.055176,101.550072 2967.114990,101.072685 
	C2964.911133,100.976532 2961.994873,101.103905 2960.608398,102.406822 
	C2958.827637,104.080704 2958.260010,107.045959 2957.169922,109.454910 
	C2959.153809,110.303207 2961.126221,111.828522 2963.124023,111.862411 
	C2967.623779,111.938728 2972.136475,111.276459 2976.995605,110.886520 
	C2976.995605,112.738304 2977.239502,115.240410 2976.940430,117.675888 
	C2976.450195,121.670258 2976.804199,126.485939 2974.681885,129.423416 
	C2969.026611,137.251755 2962.602295,144.620773 2955.801025,151.496826 
	C2949.437256,157.930298 2941.533936,161.742416 2932.017822,161.024368 
	C2927.664795,160.695892 2923.321533,157.426880 2923.090820,153.369644 
	C2922.789062,148.054581 2922.361084,142.605835 2923.163574,137.395844 
	C2925.369873,123.078308 2927.689209,108.816261 2927.028564,94.247368 
	C2926.808838,89.405701 2924.788818,87.251671 2919.979736,88.101501 
	C2917.023926,88.623825 2913.942871,89.625694 2911.421875,91.212578 
	C2900.106689,98.334328 2890.924561,107.738083 2882.844238,118.359039 
	C2878.757324,123.730469 2874.012451,128.601059 2868.658691,134.737305 
	C2869.060303,131.164322 2869.129150,129.019409 2869.562744,126.950920 
	C2872.118896,114.749031 2875.152100,102.597168 2873.917969,89.975479 
	C2873.751709,88.274834 2872.480713,86.682190 2871.721436,85.039589 
	C2870.154297,85.991508 2867.761963,86.584961 2867.165527,87.958481 
	C2864.803711,93.394844 2862.519775,98.959343 2861.144531,104.700928 
	C2859.970947,109.598625 2860.810303,115.004501 2859.481689,119.834122 
	C2856.047607,132.317154 2851.745850,144.559601 2848.167236,157.006378 
	C2847.331543,159.913055 2847.989990,163.249359 2847.960938,166.387924 
	C2851.038818,165.027771 2854.140625,163.717804 2857.176758,162.270248 
	C2857.885498,161.932465 2858.428223,161.173798 2858.951172,160.530594 
	C2864.629150,153.545975 2870.259033,146.522186 2875.959717,139.556030 
	C2881.975342,132.204971 2887.779541,124.654869 2894.184082,117.656532 
	C2899.887207,111.424683 2905.142578,104.414711 2914.000000,101.322166 
	C2914.000000,103.321259 2914.000000,104.960930 2914.000000,106.600609 
	C2914.000000,123.432701 2913.979248,140.264832 2914.010742,157.096863 
	C2914.022461,163.334351 2918.787598,169.527130 2923.583984,170.021500 
	C2937.901611,171.497284 2950.459473,167.415222 2961.332275,158.129013 
	C2966.555176,153.668198 2971.567383,148.960495 2976.662354,144.375992 
	C2977.815918,148.273026 2978.669678,152.092575 2980.066650,155.701920 
	C2984.393555,166.880692 2991.344238,171.864258 3002.247314,172.859497 
	C3015.806152,174.097168 3028.963623,171.497818 3041.549561,166.184708 
	C3044.375244,164.991867 3047.286865,163.987183 3050.199707,163.018707 
	C3055.689697,161.193344 3061.515137,160.054123 3066.598633,157.452225 
	C3069.478027,155.978500 3071.368896,156.045502 3073.767090,157.344345 
	C3081.894043,161.746078 3089.920898,166.341583 3098.150635,170.540787 
	C3106.092773,174.593170 3115.062012,175.790680 3123.478760,174.662643 
	C3135.696533,173.025162 3147.352539,168.513672 3157.800049,161.599411 
	C3165.314697,156.626114 3172.545898,151.302612 3177.221436,143.273560 
	C3179.648193,139.105972 3180.902588,134.833038 3179.177490,129.186340 
	C3172.581055,135.837234 3165.735840,141.379807 3160.604736,148.210037 
	C3151.412598,160.445892 3138.345947,160.494263 3124.999756,162.035233 
	C3124.999756,146.242828 3125.200195,131.094177 3124.905273,115.955177 
	C3124.779785,109.523590 3125.797363,103.654373 3128.901855,97.994652 
	C3130.104980,95.801483 3131.080322,92.964691 3130.748535,90.620880 
	C3130.506592,88.911453 3128.143066,86.527000 3126.394287,86.196503 
	C3121.886963,85.344650 3119.209717,88.682304 3117.014160,92.081856 
	C3114.637695,95.760796 3113.155762,100.329056 3110.058105,103.175888 
	C3097.345947,114.859116 3084.011963,125.864517 3071.257080,137.503403 
	C3067.597168,140.843567 3064.540771,140.561829 3060.347168,139.322128 
	C3057.119873,138.368118 3053.220459,136.172607 3050.019287,139.962708 
	C3051.983887,142.966156 3053.882568,145.868851 3055.816895,148.826340 
	C3049.403320,151.759933 3043.354492,154.481903 3037.344971,157.287811 
	C3031.507080,160.013641 3025.928711,163.507523 3019.849609,165.461411 
	C3006.150391,169.864532 2994.761963,165.794678 2988.853760,152.729218 
	C2982.431885,138.528885 2985.504883,125.092041 2990.834961,111.654755 
	C2991.154785,110.848190 2992.804443,110.087791 2993.813721,110.114944 
	C2999.900146,110.278717 3005.993164,111.096939 3012.058594,110.901199 
	C3021.129150,110.608459 3029.320557,104.370453 3027.352051,94.811440 
	C3015.270752,96.427063 3003.830322,102.807953 2990.707275,100.551239 
	C2992.513916,93.063362 2994.261230,85.820915 2996.072021,77.734657 
M1301.091553,68.485054 
	C1292.260742,90.273483 1283.350464,112.030174 1274.628906,133.862228 
	C1269.463623,146.791992 1263.594971,159.560944 1259.864380,172.911285 
	C1255.810059,187.420609 1252.948120,202.418274 1251.288940,217.393845 
	C1249.902832,229.904907 1250.454712,242.724930 1251.225586,255.342300 
	C1251.631592,261.986786 1253.725098,268.734467 1256.192871,274.987030 
	C1258.519165,280.880981 1264.596436,283.998047 1269.717773,281.712982 
	C1274.302246,279.667450 1278.877075,276.138611 1281.782715,272.069397 
	C1290.067505,260.466797 1294.813599,247.170654 1298.031128,233.295853 
	C1300.755981,221.545822 1302.507446,209.885040 1299.078979,197.921219 
	C1297.542114,192.558197 1296.803589,186.966339 1295.712280,181.524673 
	C1317.728271,178.585785 1337.401489,171.577576 1355.366211,159.927582 
	C1360.516846,169.847153 1370.902222,174.164490 1381.028320,170.438736 
	C1392.274414,166.300903 1399.895142,157.734619 1407.003174,148.139709 
	C1407.378662,149.201233 1407.771851,150.059952 1407.987549,150.961151 
	C1410.306885,160.653763 1415.916992,167.334900 1425.298340,171.131851 
	C1439.521729,176.888550 1453.805298,175.994705 1468.054321,171.881363 
	C1479.374146,168.613617 1484.885864,156.275726 1483.218384,145.717270 
	C1479.408203,149.366119 1475.826660,152.176605 1473.009766,155.613815 
	C1465.553101,164.712662 1456.045288,168.119522 1444.575928,167.010788 
	C1429.487183,165.552170 1419.847412,156.810852 1418.967407,141.055008 
	C1418.121338,125.901909 1421.214478,111.523804 1426.954224,97.655922 
	C1416.331909,89.420326 1401.640625,91.071960 1389.700562,97.895805 
	C1380.227295,103.309906 1372.005981,110.355354 1365.432129,119.116249 
	C1359.530029,126.981750 1354.582520,135.279221 1353.891479,145.542114 
	C1353.677124,148.726334 1353.276123,151.878799 1349.705322,154.228668 
	C1333.299316,165.025467 1315.518066,170.681885 1295.898926,168.851013 
	C1286.880737,168.009430 1281.838745,164.913193 1279.312744,156.215118 
	C1281.361206,154.471481 1283.823120,152.953293 1285.530396,150.828644 
	C1296.307861,137.415451 1304.632080,122.560341 1311.087036,106.621353 
	C1314.928467,97.135948 1317.412842,87.418854 1317.002930,77.097061 
	C1316.698853,69.442909 1311.581909,64.344772 1304.597656,65.118088 
	C1303.521118,65.237289 1302.616333,66.909225 1301.091553,68.485054 
M1505.936401,139.373840 
	C1502.558472,145.098419 1499.180542,150.822998 1495.802612,156.547577 
	C1495.310181,156.298752 1494.817749,156.049911 1494.325195,155.801071 
	C1490.214233,132.796860 1486.118530,109.789841 1481.938965,86.798065 
	C1481.761108,85.819839 1480.987915,84.661598 1480.151245,84.182190 
	C1479.476318,83.795609 1477.605103,84.040985 1477.438232,84.466316 
	C1476.520874,86.805450 1475.098389,89.412483 1475.431763,91.696655 
	C1477.003052,102.466682 1479.200684,113.143295 1480.965088,123.887680 
	C1483.419678,138.835098 1485.572510,153.833466 1488.200562,168.749023 
	C1488.486084,170.369644 1491.026489,172.737625 1492.570679,172.776337 
	C1497.133423,172.890717 1501.173340,171.158905 1503.139771,166.428207 
	C1506.744385,157.756271 1510.375122,149.095062 1514.007568,140.434692 
	C1518.065552,130.760513 1522.137451,121.092232 1526.155029,111.536057 
	C1533.945557,112.388748 1541.323975,113.196342 1548.724854,114.006401 
	C1548.934692,109.420090 1548.942017,109.398666 1545.658569,108.284683 
	C1540.290405,106.463455 1534.775391,104.995499 1529.571167,102.791054 
	C1522.562744,99.822380 1520.588745,100.619736 1517.929321,107.837257 
	C1514.127319,118.155739 1510.033203,128.366547 1505.936401,139.373840 
z"/>
<path fill="#ED9354" opacity="1.000000" stroke="none" 
	d="
M502.042206,129.114883 
	C499.137970,132.465973 496.382812,135.961777 493.298798,139.138321 
	C486.657623,145.978714 487.779755,152.985443 496.114655,158.072220 
	C504.132294,162.965378 512.857971,162.640854 521.476501,161.665298 
	C542.651428,159.268387 556.391418,145.196716 569.342468,130.115799 
	C569.750977,129.640106 569.786438,128.805237 570.235413,128.409943 
	C571.934265,126.914131 573.732056,125.530632 575.492859,124.105133 
	C575.923218,126.570457 577.348206,129.390991 576.615967,131.441132 
	C572.964294,141.665939 566.334412,150.097916 558.221924,157.059814 
	C550.329407,163.833008 541.528442,169.284851 531.662598,173.192078 
	C515.587585,179.558380 497.520081,174.285477 487.805878,161.399338 
	C486.387238,159.517441 485.194489,159.458954 482.978729,160.402924 
	C472.361420,164.926193 461.301758,167.130402 449.648682,167.122101 
	C438.857147,167.114410 431.731567,159.230377 434.534210,147.558548 
	C437.112671,136.820465 438.247406,125.734489 439.971710,114.794449 
	C440.144135,113.700493 439.994812,112.555817 439.994812,110.215378 
	C428.066772,112.162148 416.723236,114.013512 405.555969,115.836105 
	C401.914093,130.378601 398.140839,144.208817 389.093689,156.071899 
	C382.877655,164.222733 374.126465,168.412598 365.232239,171.626495 
	C352.420441,176.256012 339.027344,176.605637 325.720337,172.358948 
	C313.455261,168.444748 306.714813,160.098129 304.692291,147.194855 
	C298.747894,157.277374 290.581604,164.641449 280.488342,169.769272 
	C267.811157,176.209808 255.314117,167.863007 251.563721,157.298553 
	C241.036072,164.710678 229.609024,169.058289 216.480225,169.103867 
	C203.699020,169.148224 194.711304,161.244003 193.147552,148.863266 
	C191.788361,138.101944 191.077011,127.178688 191.177856,116.337204 
	C191.265976,106.864975 187.810486,106.495049 180.335922,108.686310 
	C175.329773,110.153931 169.852493,114.491402 167.320389,119.060150 
	C160.432495,131.488174 155.088531,144.765091 148.934937,157.610855 
	C146.981705,161.688309 144.715454,165.705795 141.969971,169.271423 
	C140.798157,170.793289 138.031616,171.087265 135.989731,171.939209 
	C135.326385,170.102905 134.100693,168.265366 134.104797,166.430557 
	C134.117264,160.851227 134.604675,155.272949 134.901581,149.797363 
	C128.879852,154.091705 122.952400,158.562561 116.780052,162.664963 
	C106.887428,169.239990 95.768639,173.514496 84.168846,174.644287 
	C75.796234,175.459778 66.811935,174.678375 58.873688,170.406738 
	C50.854401,166.091507 42.848690,161.750671 34.862247,157.375015 
	C32.210819,155.922318 30.210424,155.846710 27.290211,157.759308 
	C21.520994,161.537811 15.021424,164.146683 7.807359,162.922226 
	C6.203350,162.649963 4.471139,161.674118 3.395431,160.482758 
	C2.978483,160.020981 3.853844,157.629898 4.766652,156.864166 
	C8.385203,153.828674 12.251453,151.088440 16.298056,148.033310 
	C14.846897,145.812607 12.937922,142.891312 10.024080,138.432266 
	C14.308528,138.670975 17.726439,138.096313 20.496759,139.178864 
	C25.862398,141.275589 30.040041,140.018082 34.027325,136.465286 
	C46.204857,125.614708 58.519432,114.912491 70.481712,103.829857 
	C73.256714,101.258919 74.794571,97.372124 76.994720,94.154411 
	C78.461517,92.009224 79.679909,89.176086 81.758980,88.102974 
	C84.182678,86.852020 88.010834,86.086395 90.106369,87.208237 
	C91.543343,87.977516 91.193306,92.319054 91.362335,95.080856 
	C91.413536,95.917465 90.590050,96.849213 90.065842,97.672882 
	C85.581062,104.719681 85.864433,112.570473 85.956406,120.474022 
	C86.115128,134.114670 86.000389,147.758530 86.000389,161.890182 
	C100.443695,160.870804 114.357262,159.907303 123.321083,146.399734 
	C124.948189,143.947861 127.235603,141.790649 129.597473,139.996780 
	C136.683136,134.615128 139.501358,127.383995 141.136307,118.793480 
	C144.959686,98.704369 149.255203,78.678665 154.210632,58.839874 
	C158.127106,43.160469 163.033051,27.705545 168.120026,12.356559 
	C169.450989,8.340660 173.093170,5.090751 175.336945,1.244526 
	C178.692902,1.000000 182.385818,1.000000 186.539368,1.000000 
	C190.399246,9.007721 191.984879,17.256027 192.137650,26.057831 
	C192.464935,44.911102 186.179184,61.500134 176.376221,77.102554 
	C170.065979,87.145950 163.498047,97.035652 157.482437,107.251465 
	C155.410995,110.769226 154.661407,115.065376 153.038696,119.789909 
	C159.501099,113.944923 164.798813,108.482536 170.782440,103.919594 
	C177.509094,98.790054 185.708130,98.279343 193.830124,99.117485 
	C198.330002,99.581841 200.699860,103.487633 200.984222,109.749390 
	C201.374374,118.340759 201.344513,126.965309 202.108231,135.520859 
	C202.655579,141.652481 203.648621,147.866135 205.449509,153.734253 
	C207.896103,161.706329 213.922058,162.346802 220.203552,159.482910 
	C228.892792,155.521286 237.883606,152.219086 246.762970,148.678848 
	C247.953979,148.203979 249.248108,147.987717 250.526642,147.643036 
	C252.858307,130.334229 261.979889,117.070641 275.731445,106.739532 
	C280.792603,102.937241 285.846497,98.939217 291.437347,96.070496 
	C300.440125,91.451103 309.770050,90.595551 319.658234,94.662529 
	C323.839874,96.382431 324.086395,98.181870 322.880585,101.419556 
	C318.274506,113.787186 315.638062,126.454834 315.952606,139.746780 
	C316.352905,156.662323 327.670868,166.218719 343.110626,167.051025 
	C355.374512,167.712128 364.954865,163.606750 372.265167,153.429657 
	C377.032837,146.792313 378.209656,146.738663 383.016846,147.852737 
	C386.343384,137.489349 389.684967,127.079170 393.044647,116.612572 
	C390.854401,115.454330 388.693939,114.614922 386.876801,113.300735 
	C376.638885,105.896461 377.892365,89.216812 389.269836,83.014862 
	C395.308441,79.723152 401.469055,77.134537 408.638733,80.820450 
	C414.560822,83.864967 417.632660,90.310112 414.117706,97.427086 
	C412.607178,100.485603 410.992462,103.492691 409.245819,106.869812 
	C422.728638,103.686684 435.999786,100.553528 450.839600,97.050026 
	C449.615692,106.560936 448.541260,114.777840 447.504791,122.999535 
	C446.318939,132.405884 445.131866,141.812332 444.014557,151.226974 
	C443.437531,156.089020 446.700409,158.113800 450.573059,157.845779 
	C457.366577,157.375610 464.106903,156.041336 470.846680,154.930466 
	C474.359528,154.351486 477.823700,153.476990 480.620300,152.882538 
	C479.419647,146.525192 477.498535,140.158157 477.142334,133.704758 
	C476.301086,118.465050 483.227753,105.614220 491.225433,93.347008 
	C497.148071,84.262642 505.800354,79.196396 516.426575,77.232933 
	C526.416626,75.387032 531.928711,81.609795 529.622742,89.965492 
	C527.432922,97.900703 522.801514,105.227577 518.760437,112.555443 
	C517.054993,115.647934 514.111206,118.057442 511.068542,120.969101 
	C507.618652,123.812164 504.830414,126.463524 502.042206,129.114883 
M293.228943,104.287170 
	C284.677582,107.199875 278.377991,113.000610 273.332855,120.219559 
	C266.471405,130.037460 260.933258,140.416260 260.994415,152.885818 
	C261.032349,160.626297 266.572845,164.737061 273.983154,162.539490 
	C280.834534,160.507645 285.630768,155.853867 290.045654,150.514236 
	C298.761566,139.972672 304.860413,128.047256 308.859650,115.067871 
	C310.523163,109.669014 308.575531,106.676727 302.744446,104.999100 
	C299.982513,104.204460 296.955536,104.331154 293.228943,104.287170 
M52.755943,154.953018 
	C60.901649,157.302032 69.047356,159.651047 77.193062,162.000061 
	C77.694756,161.494553 78.196457,160.989029 78.698151,160.483521 
	C77.620148,146.155838 76.542137,131.828140 75.401886,116.673157 
	C62.102257,125.256165 53.392597,137.073105 42.034523,147.327026 
	C45.797493,150.044540 48.940109,152.314041 52.755943,154.953018 
M180.930573,34.171459 
	C181.287064,26.916948 181.724579,19.664770 181.933655,12.406013 
	C181.976974,10.902291 181.171768,9.374128 180.757629,7.857230 
	C180.084091,7.854136 179.410553,7.851041 178.737015,7.847947 
	C170.905914,31.898111 163.550766,56.060608 161.325073,83.079956 
	C164.058792,81.361351 165.980286,80.840843 166.605377,79.643524 
	C169.595245,73.916649 173.023605,68.236397 174.809097,62.106441 
	C177.385666,53.260532 178.679474,44.040985 180.930573,34.171459 
M518.584961,98.916847 
	C519.499329,95.770142 520.413696,92.623444 521.357910,89.374252 
	C506.278320,87.342110 484.540955,114.613472 488.677856,132.397095 
	C501.585236,123.937538 511.422058,113.186989 518.584961,98.916847 
M392.061798,96.734146 
	C390.616730,102.363518 392.120270,104.359940 399.684814,106.773666 
	C403.400665,101.782310 407.248688,96.925224 403.092010,90.164871 
	C401.446442,87.488480 399.571503,87.068108 397.603668,89.065369 
	C395.588074,91.111038 394.133301,93.709358 392.061798,96.734146 
z"/>
<path fill="#ED9354" opacity="1.000000" stroke="none" 
	d="
M2266.658936,114.707352 
	C2272.845459,109.899292 2279.083740,105.156006 2285.205078,100.266380 
	C2292.496826,94.441940 2299.598389,88.375435 2306.986572,82.678734 
	C2308.820312,81.264885 2311.375244,80.508080 2313.713623,80.084061 
	C2318.935303,79.137199 2322.418945,81.763939 2321.862305,87.045654 
	C2320.840088,96.747406 2319.013916,106.365685 2317.474121,116.010994 
	C2317.025879,118.819801 2316.411865,121.602165 2316.800293,124.945877 
	C2321.877930,119.566528 2326.908447,114.141594 2332.042969,108.817116 
	C2343.607422,96.824936 2354.604492,84.169395 2369.128906,75.511780 
	C2371.418945,74.146744 2374.353516,73.148430 2376.970703,73.190247 
	C2383.117920,73.288475 2385.421143,76.907654 2383.818359,83.347572 
	C2380.766113,95.611397 2376.898438,107.719666 2374.681152,120.126930 
	C2373.237793,128.203903 2372.674561,136.982819 2374.268555,144.935928 
	C2376.962402,158.376556 2386.182373,160.771011 2395.827881,161.878052 
	C2409.991455,163.503616 2423.346680,159.135147 2436.522217,154.631699 
	C2437.720459,154.222122 2439.007324,151.610291 2438.874512,150.145935 
	C2437.460693,134.533951 2443.204834,121.159508 2452.109131,109.073563 
	C2458.797607,99.995354 2466.994629,92.756767 2479.685059,93.930878 
	C2483.873291,94.318367 2486.189697,96.164185 2486.833984,98.868027 
	C2478.235352,104.276077 2469.514648,108.509583 2462.331055,114.566208 
	C2450.973389,124.142151 2446.324951,137.177307 2448.172119,152.020340 
	C2449.029785,158.911667 2454.763184,162.726227 2462.102295,161.951187 
	C2470.787109,161.034073 2478.660645,158.141617 2484.324951,151.060303 
	C2485.142090,150.038910 2485.355469,148.293274 2485.341797,146.887619 
	C2485.246826,137.064224 2484.813965,127.240555 2484.890625,117.420113 
	C2484.965332,107.849838 2488.701660,99.459557 2493.803955,91.467232 
	C2497.895752,85.057846 2505.124023,81.459930 2512.267578,83.136681 
	C2518.949463,84.705032 2520.768555,87.404526 2521.015381,95.624435 
	C2521.397461,108.329926 2518.850098,120.236099 2512.030273,131.138107 
	C2510.150635,134.142960 2508.825195,137.494385 2507.104492,140.971802 
	C2519.418701,140.612595 2530.663086,137.627747 2541.542969,133.085236 
	C2547.233643,130.709412 2552.851562,128.155991 2558.581055,125.881149 
	C2560.052979,125.296761 2561.822998,125.463799 2564.303955,125.193054 
	C2569.583496,110.400795 2575.365234,94.419411 2580.939209,78.365822 
	C2581.858398,75.718323 2583.290283,74.070412 2585.776611,75.156166 
	C2587.501465,75.909325 2589.710938,78.053215 2589.763184,79.639633 
	C2589.889893,83.485626 2589.334961,87.502670 2588.239502,91.209930 
	C2585.857422,99.270744 2582.966797,107.181221 2579.925293,116.218513 
	C2583.110596,113.930504 2585.769775,112.201973 2588.227539,110.223541 
	C2598.939453,101.601143 2609.451172,92.721375 2620.361572,84.360573 
	C2623.269287,82.132225 2627.227295,80.809425 2630.895264,80.165367 
	C2634.767822,79.485374 2636.725098,82.115776 2637.032227,86.084427 
	C2637.858887,96.765556 2634.439941,106.791824 2632.481934,117.045059 
	C2632.009033,119.520576 2631.513184,121.991684 2631.821045,125.008461 
	C2637.568604,118.884430 2643.245850,112.692604 2649.078857,106.650993 
	C2659.965332,95.374779 2670.524170,83.688889 2684.133301,75.514816 
	C2686.411133,74.146629 2689.309570,73.405922 2691.985840,73.194672 
	C2696.801025,72.814583 2699.589111,75.413094 2698.860107,80.360954 
	C2697.752197,87.878624 2695.917969,95.311264 2694.027344,102.686516 
	C2691.068115,114.229713 2687.665771,125.595360 2687.900879,137.771729 
	C2688.194580,153.001907 2698.399902,161.145447 2711.932861,162.000504 
	C2728.020508,163.016953 2742.774170,157.942886 2756.853516,152.526123 
	C2755.521729,145.792526 2752.883789,139.335098 2753.256592,133.056488 
	C2754.403564,113.743843 2762.112061,96.983185 2776.710938,84.017845 
	C2782.136963,79.199112 2789.344238,76.899918 2796.565186,77.163040 
	C2806.456787,77.523483 2807.460449,82.854149 2805.297852,93.102715 
	C2802.815186,104.867256 2795.006348,113.693298 2787.158691,122.233841 
	C2781.188477,128.731247 2774.717285,134.767792 2768.471191,141.011475 
	C2763.805176,145.675385 2763.326660,150.713440 2768.672852,154.825195 
	C2772.992188,158.147339 2778.526123,161.139297 2783.808838,161.736984 
	C2803.448242,163.959076 2820.222168,157.242752 2833.675781,142.743851 
	C2838.658936,137.373276 2845.329590,133.396667 2847.864014,125.854881 
	C2848.140381,125.032593 2850.521973,124.917824 2851.927246,124.474884 
	C2852.526367,126.529243 2854.153076,128.991257 2853.530518,130.561172 
	C2851.695557,135.187210 2849.515625,139.880310 2846.497070,143.796768 
	C2834.604248,159.225937 2819.869629,170.746658 2800.421631,175.174545 
	C2788.493652,177.890213 2778.142334,174.417038 2769.169189,166.569656 
	C2765.979980,163.780670 2763.349121,160.353378 2760.505859,157.263626 
	C2753.119141,164.501816 2743.223633,165.932312 2733.903076,168.484711 
	C2722.047119,171.731445 2710.041016,172.556259 2698.000488,169.056091 
	C2686.355713,165.671005 2680.003418,154.693497 2678.852783,143.324768 
	C2677.331055,128.290924 2682.704346,114.536049 2685.330322,100.260948 
	C2686.115723,95.990410 2686.680908,91.679375 2687.468262,86.606949 
	C2675.078125,91.477440 2665.468506,98.642982 2657.852783,107.914154 
	C2649.075928,118.598854 2640.987061,129.905487 2633.305908,141.413361 
	C2628.469971,148.658035 2624.976074,156.792801 2620.772705,164.469437 
	C2619.843018,166.167191 2618.771973,168.302261 2617.209961,169.012131 
	C2615.114746,169.964188 2611.783203,170.740601 2610.274170,169.706818 
	C2608.824707,168.713928 2608.062256,165.038834 2608.645508,163.018005 
	C2614.709717,142.007263 2621.136230,121.101341 2627.343506,100.131264 
	C2627.747314,98.767708 2627.724365,96.471306 2626.907471,95.777573 
	C2626.072266,95.068321 2623.569824,95.222168 2622.564941,95.995659 
	C2616.997559,100.282036 2610.961426,104.258743 2606.395752,109.485840 
	C2596.724365,120.559441 2587.963623,132.422989 2578.631104,143.799942 
	C2572.483398,151.294876 2565.990967,158.507568 2559.647217,165.841751 
	C2559.321045,166.218704 2558.960449,166.570679 2558.584961,166.898880 
	C2555.890381,169.253876 2552.961914,172.754761 2549.414551,170.253281 
	C2548.207275,169.401932 2549.230469,164.363647 2550.225586,161.594818 
	C2553.978760,151.152985 2558.139893,140.857742 2562.479980,129.651031 
	C2556.048340,133.464432 2550.669189,136.968719 2545.010986,139.942886 
	C2533.384766,146.054199 2520.980713,149.953384 2507.868164,150.916779 
	C2499.364014,151.541611 2492.464600,155.454803 2485.621338,159.869751 
	C2481.115479,162.776825 2476.851074,166.349716 2471.950195,168.288986 
	C2463.444824,171.654755 2454.452881,172.431412 2446.011719,167.863037 
	C2443.607422,166.561691 2442.032471,163.727325 2440.038330,161.553741 
	C2424.480957,168.256104 2407.889648,172.694504 2390.424316,170.841309 
	C2375.710205,169.280014 2365.903076,160.065445 2363.838379,144.849228 
	C2361.897949,130.549728 2366.670410,117.518547 2369.453613,104.050285 
	C2370.594482,98.529243 2371.417969,92.942627 2372.509766,86.673615 
	C2359.399658,91.415886 2349.842285,99.462440 2341.793213,108.980179 
	C2333.708984,118.539581 2326.353271,128.792007 2319.454834,139.253052 
	C2314.012939,147.505661 2309.756104,156.539185 2304.956787,165.216919 
	C2304.326904,166.355820 2303.833252,168.078293 2302.874023,168.428802 
	C2300.301025,169.368942 2297.509766,169.711288 2294.805176,170.291107 
	C2294.447021,167.738739 2293.221680,164.940079 2293.865479,162.672363 
	C2299.750488,141.950638 2305.987793,121.329247 2312.019287,100.648460 
	C2312.467773,99.110474 2312.118896,97.339966 2312.140869,95.677612 
	C2310.306641,95.824829 2307.931152,95.287148 2306.730469,96.236038 
	C2301.066162,100.712891 2295.050049,105.020294 2290.400635,110.450653 
	C2279.344971,123.363167 2269.168213,137.024429 2258.277832,150.084045 
	C2252.734863,156.730789 2246.556641,162.874863 2240.339600,168.910522 
	C2239.002197,170.209076 2236.260742,170.061707 2234.166016,170.580429 
	C2234.118652,168.470352 2233.446289,166.133621 2234.117188,164.284088 
	C2244.393311,135.952911 2254.846436,107.685951 2265.253662,79.402328 
	C2266.432373,76.199753 2268.618164,73.319992 2271.935059,75.330284 
	C2273.692383,76.395050 2274.935303,80.511711 2274.400879,82.776505 
	C2271.990234,92.991615 2268.860596,103.037048 2265.681641,113.647980 
	C2265.320312,114.607094 2265.267334,115.061913 2265.214355,115.516724 
	C2265.695801,115.246925 2266.177490,114.977135 2266.658936,114.707352 
M2772.474609,127.018501 
	C2784.142090,116.676178 2794.758789,105.633316 2797.694580,89.410629 
	C2784.346436,86.524117 2760.645020,113.317558 2765.494141,131.852127 
	C2767.740234,130.356491 2769.856689,128.947418 2772.474609,127.018501 
M2506.025146,94.490456 
	C2494.993164,105.665672 2489.104004,129.916748 2495.555908,137.600983 
	C2508.546387,128.775818 2516.885254,101.808975 2509.562256,92.370041 
	C2508.574707,92.935944 2507.590332,93.500160 2506.025146,94.490456 
z"/>
<path fill="#ED9354" opacity="1.000000" stroke="none" 
	d="
M2046.042236,115.114189 
	C2046.023438,115.460510 2045.867065,115.725952 2044.979736,116.042328 
	C2043.271362,117.820740 2042.156860,119.467316 2041.042236,121.113861 
	C2034.633301,127.639084 2028.242310,134.181976 2021.809937,140.683884 
	C2016.854126,145.693115 2017.800049,153.238831 2023.834229,156.976059 
	C2032.713745,162.475769 2042.271606,162.450119 2052.304688,161.454422 
	C2073.188965,159.381805 2085.052490,144.116684 2098.424072,130.967865 
	C2099.526611,129.883789 2099.726807,127.909386 2100.781250,126.741837 
	C2101.826172,125.585114 2103.421875,124.925903 2104.775879,124.048401 
	C2105.515381,125.374207 2107.082275,126.880623 2106.839600,127.992271 
	C2106.091797,131.420837 2105.189209,135.023560 2103.395508,137.981964 
	C2092.211914,156.426468 2076.268066,168.977783 2055.480713,174.922806 
	C2040.278442,179.270554 2024.527100,171.860413 2015.584106,159.178604 
	C2006.081299,167.339874 1994.392822,170.218460 1982.504028,171.818527 
	C1975.130859,172.810822 1967.494141,172.431137 1960.023682,171.939240 
	C1953.157227,171.487152 1948.772339,166.560349 1944.328125,161.613358 
	C1933.319702,169.898422 1920.469971,175.717102 1906.518677,176.606888 
	C1895.773926,177.292160 1883.729248,177.012726 1878.686035,163.561981 
	C1878.427979,162.873703 1875.857300,162.446030 1874.645874,162.817871 
	C1865.340210,165.674347 1855.907349,167.025162 1846.133179,167.130295 
	C1836.856445,167.230072 1829.197021,158.006485 1831.638672,149.076645 
	C1834.499878,138.613052 1835.337158,127.591537 1836.957886,116.797852 
	C1837.220581,115.048515 1836.994751,113.225830 1836.994751,110.194656 
	C1825.049316,112.177612 1813.715088,114.059074 1802.451660,115.928810 
	C1800.013428,129.738541 1796.181396,142.735184 1787.855225,153.589539 
	C1783.790771,158.888062 1777.966797,162.993698 1772.422607,166.907516 
	C1770.701050,168.122833 1765.790405,167.943741 1764.919556,166.657059 
	C1762.277954,162.753922 1759.775146,164.610657 1756.973633,165.525818 
	C1744.696777,169.536331 1732.879395,169.748489 1722.274658,161.034332 
	C1716.477417,156.270599 1714.666748,149.624512 1714.026001,142.533081 
	C1713.855469,140.647049 1714.000244,138.732544 1713.214966,136.659882 
	C1710.324219,142.422409 1707.311035,148.127319 1704.567261,153.959000 
	C1698.119141,167.663834 1686.547363,173.443420 1672.268677,173.830460 
	C1662.470093,174.096039 1654.695190,169.996613 1656.061157,158.046997 
	C1656.816162,151.441605 1658.183960,144.905838 1659.295288,138.342041 
	C1659.470093,137.309586 1659.750122,136.294968 1659.806274,136.046570 
	C1649.467773,140.045441 1639.243652,144.559204 1628.649780,147.901169 
	C1621.581177,150.131073 1613.971069,150.616074 1606.635620,152.046997 
	C1604.473145,152.468857 1602.254272,153.158020 1600.345825,154.230896 
	C1591.594360,159.150635 1583.292114,165.050400 1574.145630,169.028427 
	C1566.985718,172.142471 1558.720581,172.239548 1551.545776,167.948486 
	C1549.170532,166.527878 1546.867920,163.652023 1546.149658,161.002869 
	C1539.635010,136.980606 1548.151489,117.387520 1564.974609,100.619530 
	C1570.780029,94.833145 1578.286865,92.863815 1586.292114,94.182472 
	C1588.469238,94.541130 1590.308350,96.952034 1593.030029,98.956841 
	C1586.613770,102.380821 1581.114014,104.793922 1576.175049,108.055984 
	C1564.610718,115.693802 1555.584106,125.485588 1553.740723,139.892120 
	C1553.089966,144.978729 1553.447998,150.363983 1554.363403,155.428894 
	C1555.122925,159.631561 1561.088135,162.506241 1566.821533,161.932938 
	C1575.658813,161.049271 1583.829956,158.388458 1589.477295,150.918930 
	C1590.251831,149.894531 1590.434814,148.068283 1590.231323,146.712372 
	C1587.234985,126.748123 1588.260742,107.512177 1599.981689,90.090515 
	C1605.470337,81.932098 1615.311890,81.192612 1622.480225,85.346619 
	C1624.090942,86.279999 1625.739746,88.659073 1625.833862,90.453201 
	C1626.455566,102.308197 1626.191895,114.112740 1620.492554,125.022591 
	C1617.782593,130.209839 1615.054443,135.387589 1612.180420,140.863419 
	C1623.082764,141.009720 1633.120361,138.454468 1642.847778,134.559647 
	C1649.444946,131.918213 1655.946411,129.031113 1662.425781,126.109779 
	C1663.457886,125.644470 1664.427246,124.561005 1664.951050,123.523621 
	C1668.990356,115.524300 1672.873779,107.446182 1676.915405,99.448090 
	C1677.479126,98.332542 1678.641479,97.519623 1679.956421,96.103958 
	C1683.472534,103.904884 1680.530518,110.149193 1678.190063,116.381485 
	C1673.753296,128.196014 1669.119507,139.936661 1664.698608,151.757019 
	C1663.859863,153.999588 1663.068115,156.512253 1663.244873,158.824677 
	C1663.529663,162.552567 1665.515869,165.131226 1669.876831,165.024124 
	C1679.162109,164.796051 1686.861694,160.779312 1692.422607,153.829163 
	C1698.701172,145.982117 1704.566895,137.633835 1709.370483,128.826385 
	C1714.007568,120.323997 1717.090332,111.012810 1718.216553,101.144539 
	C1718.428467,99.287605 1721.380005,96.373497 1723.108887,96.343536 
	C1726.746338,96.280510 1726.192139,99.749542 1725.876831,102.320198 
	C1724.624634,112.533722 1722.332642,122.737411 1722.324463,132.946289 
	C1722.318481,140.298325 1721.864746,148.310211 1726.929810,155.054810 
	C1731.486328,161.121994 1741.608521,164.048111 1748.534790,160.815140 
	C1754.565918,158.000015 1760.580200,155.075760 1766.829102,152.832458 
	C1769.696777,151.802979 1773.108887,152.289688 1777.237427,152.027695 
	C1784.073486,142.030121 1785.880737,128.983444 1790.219971,116.761673 
	C1788.595459,115.852203 1787.148682,115.150932 1785.814453,114.277748 
	C1776.936279,108.467377 1775.474854,104.711304 1778.020386,94.450592 
	C1780.067749,86.197159 1793.744141,77.144531 1801.894653,79.114693 
	C1810.358398,81.160553 1815.466553,87.950851 1811.915283,96.721306 
	C1810.525635,100.153229 1808.440186,103.303322 1806.495361,106.908226 
	C1820.207397,103.707588 1833.856323,100.521706 1848.494385,97.104904 
	C1845.852173,114.919098 1843.453857,131.190079 1841.019287,147.455658 
	C1839.913208,154.846344 1842.600586,158.570404 1849.940552,157.850327 
	C1859.057373,156.955917 1868.067139,154.970596 1876.008423,153.642838 
	C1876.008423,144.489166 1875.755005,136.718094 1876.088501,128.972290 
	C1876.355591,122.767487 1876.707520,116.441269 1878.160400,110.444817 
	C1879.901855,103.257034 1882.562378,96.240623 1885.427856,89.402664 
	C1886.515259,86.807907 1888.916016,84.723618 1892.709473,86.852798 
	C1896.761841,89.127274 1895.740234,91.974602 1894.467285,95.018867 
	C1887.914551,110.689781 1884.209595,127.089783 1884.212158,143.981293 
	C1884.213867,155.446762 1888.889771,165.736542 1899.722656,168.437149 
	C1905.060791,169.767944 1909.222778,167.540115 1913.798340,166.052811 
	C1923.189331,163.000290 1932.609375,160.036697 1942.216309,156.973068 
	C1936.309204,142.405853 1937.619019,126.439125 1938.835938,110.923782 
	C1934.112793,111.288406 1929.508667,111.722740 1924.894653,111.969109 
	C1922.317261,112.106728 1919.375366,112.371185 1919.033813,108.628967 
	C1918.721069,105.200958 1922.022827,101.205040 1925.297852,101.035103 
	C1928.289551,100.879868 1931.299927,101.100906 1934.294434,100.975960 
	C1939.476318,100.759720 1942.765503,97.855461 1944.019897,92.930397 
	C1948.061646,77.061745 1952.013184,61.165798 1956.428345,45.400482 
	C1957.240967,42.498463 1959.910034,40.031258 1961.993408,37.595284 
	C1963.869995,35.401207 1965.444092,36.239906 1965.961182,38.792091 
	C1966.325195,40.589153 1966.647461,42.590210 1966.233276,44.319260 
	C1961.924438,62.304543 1957.455688,80.251472 1953.066406,98.217606 
	C1952.883057,98.967934 1953.042969,99.802109 1953.042969,100.563210 
	C1966.040527,103.005249 1977.402222,95.928261 1989.693604,94.873573 
	C1989.748779,104.500412 1983.979004,109.917686 1974.803467,110.821060 
	C1968.645874,111.427307 1962.326904,110.278618 1956.075195,110.150391 
	C1954.938354,110.127068 1953.141479,110.950844 1952.723633,111.871284 
	C1945.683350,127.380821 1944.075317,142.891586 1953.617798,158.070023 
	C1958.402100,165.680069 1968.619995,169.622238 1977.830322,166.464462 
	C1986.351807,163.542831 1994.428467,159.325867 2002.709717,155.699646 
	C2005.475952,154.488373 2008.269531,153.339813 2010.544678,152.376740 
	C2009.126831,146.641983 2005.866333,140.194839 2006.311279,134.014511 
	C2007.762085,113.866005 2014.717651,95.738335 2031.565430,83.160873 
	C2037.978394,78.373421 2045.543701,75.572777 2054.003906,77.926506 
	C2057.543457,78.911377 2058.845947,81.044983 2059.083496,84.708656 
	C2059.739746,94.823662 2055.664551,103.089149 2049.082275,110.981827 
	C2047.628418,112.503708 2046.835327,113.808960 2046.042236,115.114189 
M2021.923218,112.452881 
	C2018.480347,118.306122 2017.340332,124.617302 2018.171143,131.320419 
	C2028.707764,128.537827 2051.543213,102.081215 2050.617188,89.129898 
	C2049.857178,89.089622 2049.047119,88.956993 2048.255859,89.029922 
	C2047.458130,89.103424 2046.666016,89.337715 2045.894409,89.575752 
	C2034.399902,93.121552 2027.825806,101.977478 2021.923218,112.452881 
M1599.020386,135.862900 
	C1599.787231,136.292648 1601.010010,137.268295 1601.250610,137.067474 
	C1603.603149,135.103027 1606.177002,133.224197 1607.960449,130.788376 
	C1615.425171,120.592079 1617.893066,108.953308 1616.929321,96.520805 
	C1616.811768,95.005005 1615.744751,93.562798 1614.945190,91.680222 
	C1612.501587,93.923134 1610.141113,95.227730 1609.077637,97.223480 
	C1605.524536,103.892273 1601.538086,110.548599 1599.463379,117.715111 
	C1597.906128,123.093605 1599.035278,129.249832 1599.020386,135.862900 
M1796.951660,106.528252 
	C1801.282837,102.178963 1803.628418,97.285599 1800.949219,91.145554 
	C1799.732788,88.358055 1797.165405,86.301208 1794.951416,88.915321 
	C1792.276245,92.073883 1789.937988,96.194939 1789.284302,100.198334 
	C1788.625977,104.228867 1793.034790,105.577827 1796.951660,106.528252 
z"/>
<path fill="#ED9354" opacity="1.000000" stroke="none" 
	d="
M911.340881,135.292450 
	C898.798218,142.699249 885.486877,148.079788 871.058899,150.466141 
	C868.474548,150.893585 865.840332,151.380508 863.243896,151.308594 
	C854.752502,151.073471 849.006775,157.014709 842.183716,160.471008 
	C838.868469,162.150360 836.031616,164.750443 832.785645,166.594727 
	C823.916382,171.633896 814.507507,172.076202 804.998108,168.880753 
	C801.086426,167.566330 798.899475,164.264725 797.985229,160.193420 
	C797.690552,158.881073 797.176636,157.617966 796.785889,156.403641 
	C788.035583,163.899673 778.993835,170.645065 771.282410,178.668976 
	C767.362976,182.747269 764.737488,188.877655 763.457520,194.518417 
	C760.651794,206.883270 758.883301,219.499100 757.047974,232.064545 
	C754.790955,247.517456 754.529785,263.259033 749.101807,278.219574 
	C744.741760,290.236908 734.333801,297.129120 721.993469,297.967743 
	C718.841614,298.181946 715.662720,298.001282 712.496277,297.999634 
	C703.840088,297.995148 699.275208,293.218994 698.941956,284.695648 
	C698.317810,268.732788 703.144653,254.147247 709.568115,239.905991 
	C716.475220,224.592438 724.873657,210.137802 734.816040,196.598602 
	C738.099121,192.127823 740.970642,187.015091 745.188416,183.645493 
	C752.585754,177.735687 753.168579,169.757339 753.953979,161.615112 
	C754.237732,158.673019 753.999573,155.680588 753.999573,152.287506 
	C749.210449,156.800842 744.768127,160.986755 740.326416,165.173416 
	C735.114258,170.086334 728.625793,172.132889 721.765381,172.915024 
	C716.915833,173.467926 711.811951,169.653305 710.199280,164.209030 
	C709.009521,160.192459 708.264221,155.934494 708.075867,151.750092 
	C707.273743,133.927155 708.171692,116.200539 713.097717,98.941216 
	C713.806396,96.458344 716.408020,94.515739 718.133606,92.323112 
	C718.804504,92.438591 719.475403,92.554077 720.146301,92.669556 
	C721.096985,95.253700 723.054504,97.931641 722.824036,100.405754 
	C721.824768,111.132927 719.968933,121.777817 718.848877,132.496964 
	C717.926086,141.328873 717.510437,150.218506 717.052307,159.091980 
	C716.862793,162.761581 719.949951,163.996185 722.595032,163.845444 
	C731.056763,163.363174 737.796265,160.126984 743.234802,152.801132 
	C753.001221,139.645325 756.062012,124.267204 759.983337,109.067390 
	C760.428772,107.340897 760.820740,105.574600 760.972046,103.804077 
	C761.224487,100.850143 763.174927,99.206894 765.631104,99.485626 
	C768.239990,99.781685 771.489380,100.702560 770.971130,104.604034 
	C769.531677,115.439384 767.964539,126.257759 766.450256,137.083191 
	C765.048462,147.105026 763.649719,157.127304 762.090271,168.290176 
	C773.489929,161.223145 783.889648,155.262222 793.632812,148.372787 
	C795.892944,146.774658 796.475342,142.073990 796.863342,138.690109 
	C798.234070,126.735504 804.154785,117.004333 810.904297,107.497551 
	C815.462341,101.077484 821.415405,96.779556 828.850159,94.768417 
	C832.102234,93.888695 835.740906,93.881577 839.117432,94.257141 
	C840.762939,94.440170 842.209656,96.410950 843.746338,97.572464 
	C842.322327,99.095863 841.181152,101.273933 839.426575,102.031998 
	C830.734436,105.787285 823.258423,111.088867 816.602356,117.812782 
	C806.526123,127.991646 804.928894,140.546921 806.128357,153.837067 
	C806.561951,158.640762 813.342346,162.602127 819.608826,161.934479 
	C826.964661,161.150787 833.547791,158.404404 839.667114,154.002655 
	C845.677734,149.679169 841.703735,144.756882 841.480835,140.032532 
	C840.579956,120.940514 841.061707,102.182198 855.407410,87.166626 
	C860.372314,81.969971 869.107605,81.297531 874.782471,85.456116 
	C876.140015,86.450958 877.779846,88.174767 877.852905,89.635155 
	C878.537537,103.327110 878.362061,116.929657 870.966309,129.251160 
	C868.805908,132.850525 866.785522,136.533997 863.995667,141.412369 
	C871.288452,140.447021 877.488281,140.330750 883.255310,138.691681 
	C891.165283,136.443558 898.631042,132.665909 906.500122,130.232224 
	C915.276917,127.517799 919.112854,121.087364 922.183105,113.150787 
	C924.535706,107.069229 928.245056,101.512489 931.718201,95.037674 
	C935.173096,101.188797 934.203735,106.338539 932.201355,111.379005 
	C927.893311,122.223671 923.184021,132.916183 919.152649,143.860199 
	C917.437927,148.515503 916.554199,153.606232 916.127258,158.570831 
	C915.686584,163.694458 918.049866,165.448227 923.524902,164.980438 
	C933.301086,164.145142 940.706909,158.916595 946.746155,151.677261 
	C955.766602,140.864258 963.046021,128.969650 967.141235,115.392067 
	C968.491760,110.914192 968.673889,106.069160 970.169312,101.656013 
	C970.911377,99.466049 973.220581,96.580109 975.167725,96.283005 
	C979.123596,95.679390 978.291016,99.607124 977.895813,101.668564 
	C975.399475,114.690453 974.387512,127.803696 975.044861,141.023483 
	C975.371643,147.597610 976.827759,153.693954 982.547363,158.176254 
	C988.541504,162.873718 994.605469,163.228439 1001.343201,160.266205 
	C1007.421509,157.593903 1013.536682,154.952530 1019.806763,152.795029 
	C1022.390991,151.905823 1025.422729,152.317139 1029.612915,152.050171 
	C1036.553833,142.575409 1038.163696,129.083557 1042.706055,116.524147 
	C1041.783813,116.023949 1040.833252,115.472641 1039.852539,114.981796 
	C1027.707153,108.903587 1027.070435,102.188286 1031.762939,90.921768 
	C1035.184326,82.707245 1046.395020,77.637375 1053.832886,79.192032 
	C1065.852417,81.704315 1067.727295,91.080322 1062.354614,101.085808 
	C1061.375488,102.909004 1060.030518,104.535751 1058.381348,106.944153 
	C1072.526733,103.637810 1085.841919,100.525551 1100.489746,97.101776 
	C1099.424072,105.779037 1098.472534,113.323212 1097.576538,120.873985 
	C1096.362305,131.106445 1095.072876,141.332275 1094.057617,151.584930 
	C1093.637573,155.827454 1096.016479,157.645889 1100.290894,158.079117 
	C1109.748901,159.037643 1118.208374,154.873077 1127.180908,153.422195 
	C1129.444580,153.056137 1131.814453,152.938782 1134.082153,153.189774 
	C1135.110840,153.303619 1136.744873,154.552658 1136.791992,155.362900 
	C1136.859741,156.531113 1135.999268,158.531326 1135.072388,158.856033 
	C1127.767944,161.414948 1120.490723,164.456894 1112.931030,165.760895 
	C1106.289795,166.906479 1099.183594,166.750137 1092.488037,165.768433 
	C1086.587524,164.903320 1083.519287,160.245560 1084.107544,154.240158 
	C1085.188721,143.201981 1086.895630,132.224319 1088.386963,121.227562 
	C1088.862915,117.718369 1089.482056,114.228638 1090.145630,110.035629 
	C1079.722900,111.751183 1069.835449,113.354935 1059.958008,115.018234 
	C1056.812134,115.547966 1054.637207,116.516426 1053.825562,120.510139 
	C1051.489502,132.005798 1047.662231,143.068771 1040.992065,152.892838 
	C1036.717041,159.189224 1031.414551,164.393829 1024.200195,167.322205 
	C1019.523743,169.220444 1016.614136,167.907059 1015.541504,163.405045 
	C992.625916,173.760956 965.681396,168.041550 965.799011,135.659393 
	C962.915955,141.734299 960.613831,147.029449 957.935974,152.127243 
	C953.525513,160.523438 948.201050,168.290817 938.445801,170.994781 
	C933.025879,172.497055 927.068787,174.438110 921.778992,173.575226 
	C907.479736,171.242676 907.098633,163.005157 908.385010,151.431244 
	C908.932800,146.502670 910.762451,141.716568 912.318176,136.356628 
	C912.679749,135.392654 912.732727,134.937790 912.785706,134.482910 
	C912.304077,134.752731 911.822449,135.022583 911.340881,135.292450 
M749.001282,210.742355 
	C749.623779,205.274872 750.246277,199.807388 751.026611,192.953827 
	C748.329651,194.598557 746.161316,195.380737 744.764832,196.881241 
	C741.519836,200.367950 738.050171,203.861694 735.724487,207.951355 
	C724.343506,227.964798 713.570190,248.278717 708.424377,271.020935 
	C706.986267,277.376740 708.897583,285.033173 712.843872,287.383575 
	C718.086182,290.505829 725.679382,289.448975 730.535461,283.699097 
	C734.346008,279.187256 737.805237,273.942047 739.828857,268.437531 
	C746.540405,250.181274 747.944336,230.933365 749.001282,210.742355 
M863.046814,95.434464 
	C852.636169,105.918434 847.141113,128.367905 852.747803,137.483047 
	C853.358398,137.251312 854.083801,137.159683 854.562866,136.767380 
	C867.161621,126.451202 869.335449,111.987450 869.806702,97.094193 
	C869.935852,93.013298 867.026428,92.294807 863.046814,95.434464 
M1053.941406,99.216599 
	C1054.050293,98.238342 1054.489746,97.149612 1054.206543,96.302452 
	C1053.340454,93.712006 1052.441772,91.057922 1050.992798,88.788063 
	C1050.618896,88.202515 1047.299927,88.398727 1046.833130,89.157845 
	C1044.611450,92.770271 1041.838135,96.596153 1041.449585,100.560539 
	C1041.241211,102.687599 1045.448975,105.247414 1048.226562,108.212532 
	C1050.469238,104.742569 1052.032959,102.323235 1053.941406,99.216599 
z"/>
<path fill="#ED9354" opacity="1.000000" stroke="none" 
	d="
M2996.040283,78.156570 
	C2994.261230,85.820915 2992.513916,93.063362 2990.707275,100.551239 
	C3003.830322,102.807953 3015.270752,96.427063 3027.352051,94.811440 
	C3029.320557,104.370453 3021.129150,110.608459 3012.058594,110.901199 
	C3005.993164,111.096939 2999.900146,110.278717 2993.813721,110.114944 
	C2992.804443,110.087791 2991.154785,110.848190 2990.834961,111.654755 
	C2985.504883,125.092041 2982.431885,138.528885 2988.853760,152.729218 
	C2994.761963,165.794678 3006.150391,169.864532 3019.849609,165.461411 
	C3025.928711,163.507523 3031.507080,160.013641 3037.344971,157.287811 
	C3043.354492,154.481903 3049.403320,151.759933 3055.816895,148.826340 
	C3053.882568,145.868851 3051.983887,142.966156 3050.019287,139.962708 
	C3053.220459,136.172607 3057.119873,138.368118 3060.347168,139.322128 
	C3064.540771,140.561829 3067.597168,140.843567 3071.257080,137.503403 
	C3084.011963,125.864517 3097.345947,114.859116 3110.058105,103.175888 
	C3113.155762,100.329056 3114.637695,95.760796 3117.014160,92.081856 
	C3119.209717,88.682304 3121.886963,85.344650 3126.394287,86.196503 
	C3128.143066,86.527000 3130.506592,88.911453 3130.748535,90.620880 
	C3131.080322,92.964691 3130.104980,95.801483 3128.901855,97.994652 
	C3125.797363,103.654373 3124.779785,109.523590 3124.905273,115.955177 
	C3125.200195,131.094177 3124.999756,146.242828 3124.999756,162.035233 
	C3138.345947,160.494263 3151.412598,160.445892 3160.604736,148.210037 
	C3165.735840,141.379807 3172.581055,135.837234 3179.177490,129.186340 
	C3180.902588,134.833038 3179.648193,139.105972 3177.221436,143.273560 
	C3172.545898,151.302612 3165.314697,156.626114 3157.800049,161.599411 
	C3147.352539,168.513672 3135.696533,173.025162 3123.478760,174.662643 
	C3115.062012,175.790680 3106.092773,174.593170 3098.150635,170.540787 
	C3089.920898,166.341583 3081.894043,161.746078 3073.767090,157.344345 
	C3071.368896,156.045502 3069.478027,155.978500 3066.598633,157.452225 
	C3061.515137,160.054123 3055.689697,161.193344 3050.199707,163.018707 
	C3047.286865,163.987183 3044.375244,164.991867 3041.549561,166.184708 
	C3028.963623,171.497818 3015.806152,174.097168 3002.247314,172.859497 
	C2991.344238,171.864258 2984.393555,166.880692 2980.066650,155.701920 
	C2978.669678,152.092575 2977.815918,148.273026 2976.662354,144.375992 
	C2971.567383,148.960495 2966.555176,153.668198 2961.332275,158.129013 
	C2950.459473,167.415222 2937.901611,171.497284 2923.583984,170.021500 
	C2918.787598,169.527130 2914.022461,163.334351 2914.010742,157.096863 
	C2913.979248,140.264832 2914.000000,123.432701 2914.000000,106.600609 
	C2914.000000,104.960930 2914.000000,103.321259 2914.000000,101.322166 
	C2905.142578,104.414711 2899.887207,111.424683 2894.184082,117.656532 
	C2887.779541,124.654869 2881.975342,132.204971 2875.959717,139.556030 
	C2870.259033,146.522186 2864.629150,153.545975 2858.951172,160.530594 
	C2858.428223,161.173798 2857.885498,161.932465 2857.176758,162.270248 
	C2854.140625,163.717804 2851.038818,165.027771 2847.960938,166.387955 
	C2847.989990,163.249359 2847.331543,159.913055 2848.167236,157.006378 
	C2851.745850,144.559601 2856.047607,132.317154 2859.481689,119.834122 
	C2860.810303,115.004501 2859.970947,109.598625 2861.144531,104.700928 
	C2862.519775,98.959343 2864.803711,93.394844 2867.165527,87.958481 
	C2867.761963,86.584961 2870.154297,85.991508 2871.721436,85.039551 
	C2872.480713,86.682190 2873.751709,88.274834 2873.917969,89.975479 
	C2875.152100,102.597168 2872.118896,114.749031 2869.562744,126.950920 
	C2869.129150,129.019409 2869.060303,131.164322 2868.658691,134.737305 
	C2874.012451,128.601059 2878.757324,123.730469 2882.844238,118.359039 
	C2890.924561,107.738083 2900.106689,98.334328 2911.421875,91.212578 
	C2913.942871,89.625694 2917.023926,88.623825 2919.979736,88.101501 
	C2924.788818,87.251671 2926.808838,89.405701 2927.028564,94.247368 
	C2927.689209,108.816261 2925.369873,123.078308 2923.163574,137.395844 
	C2922.361084,142.605835 2922.789062,148.054581 2923.090820,153.369644 
	C2923.321533,157.426880 2927.664795,160.695892 2932.017822,161.024368 
	C2941.533936,161.742416 2949.437256,157.930298 2955.801025,151.496826 
	C2962.602295,144.620773 2969.026611,137.251755 2974.681885,129.423416 
	C2976.804199,126.485939 2976.450195,121.670258 2976.940430,117.675888 
	C2977.239502,115.240410 2976.995605,112.738304 2976.995605,110.886520 
	C2972.136475,111.276459 2967.623779,111.938728 2963.124023,111.862411 
	C2961.126221,111.828522 2959.153809,110.303207 2957.169922,109.454926 
	C2958.260010,107.045959 2958.827637,104.080704 2960.608398,102.406822 
	C2961.994873,101.103905 2964.911133,100.976532 2967.114990,101.072685 
	C2978.055176,101.550072 2981.110352,98.579491 2983.342285,88.544281 
	C2986.681641,73.530067 2990.840088,58.681969 2995.181885,43.919693 
	C2996.104980,40.781544 2999.313232,38.315495 3001.468506,35.539837 
	C3002.073242,35.625835 3002.677734,35.711834 3003.282471,35.797832 
	C3003.851562,38.317680 3005.351807,41.049973 3004.833252,43.321629 
	C3002.200684,54.858315 2999.044678,66.275566 2996.040283,78.156570 
M3105.131104,159.627472 
	C3108.941162,160.136871 3112.751465,160.646271 3117.700195,161.307892 
	C3116.551514,146.108093 3115.470459,131.804733 3114.389404,117.501366 
	C3113.789307,117.172165 3113.189209,116.842964 3112.589355,116.513763 
	C3102.250488,126.573685 3091.911621,136.633606 3081.597412,146.669678 
	C3087.490479,153.497284 3092.013428,155.893784 3105.131104,159.627472 
z"/>
<path fill="#ED9354" opacity="1.000000" stroke="none" 
	d="
M1301.361816,68.174057 
	C1302.616333,66.909225 1303.521118,65.237289 1304.597656,65.118088 
	C1311.581909,64.344772 1316.698853,69.442909 1317.002930,77.097061 
	C1317.412842,87.418854 1314.928467,97.135948 1311.087036,106.621353 
	C1304.632080,122.560341 1296.307861,137.415451 1285.530396,150.828644 
	C1283.823120,152.953293 1281.361206,154.471481 1279.312744,156.215118 
	C1281.838745,164.913193 1286.880737,168.009430 1295.898926,168.851013 
	C1315.518066,170.681885 1333.299316,165.025467 1349.705322,154.228668 
	C1353.276123,151.878799 1353.677124,148.726334 1353.891479,145.542114 
	C1354.582520,135.279221 1359.530029,126.981750 1365.432129,119.116249 
	C1372.005981,110.355354 1380.227295,103.309906 1389.700562,97.895805 
	C1401.640625,91.071960 1416.331909,89.420326 1426.954224,97.655922 
	C1421.214478,111.523804 1418.121338,125.901909 1418.967407,141.055008 
	C1419.847412,156.810852 1429.487183,165.552170 1444.575928,167.010788 
	C1456.045288,168.119522 1465.553101,164.712662 1473.009766,155.613815 
	C1475.826660,152.176605 1479.408203,149.366119 1483.218384,145.717270 
	C1484.885864,156.275726 1479.374146,168.613617 1468.054321,171.881363 
	C1453.805298,175.994705 1439.521729,176.888550 1425.298340,171.131851 
	C1415.916992,167.334900 1410.306885,160.653763 1407.987549,150.961151 
	C1407.771851,150.059952 1407.378662,149.201233 1407.003174,148.139709 
	C1399.895142,157.734619 1392.274414,166.300903 1381.028320,170.438736 
	C1370.902222,174.164490 1360.516846,169.847153 1355.366211,159.927582 
	C1337.401489,171.577576 1317.728271,178.585785 1295.712280,181.524673 
	C1296.803589,186.966339 1297.542114,192.558197 1299.078979,197.921219 
	C1302.507446,209.885040 1300.755981,221.545822 1298.031128,233.295853 
	C1294.813599,247.170654 1290.067505,260.466797 1281.782715,272.069397 
	C1278.877075,276.138611 1274.302246,279.667450 1269.717773,281.712982 
	C1264.596436,283.998047 1258.519165,280.880981 1256.192871,274.987030 
	C1253.725098,268.734467 1251.631592,261.986786 1251.225586,255.342300 
	C1250.454712,242.724930 1249.902832,229.904907 1251.288940,217.393845 
	C1252.948120,202.418274 1255.810059,187.420609 1259.864380,172.911285 
	C1263.594971,159.560944 1269.463623,146.791992 1274.628906,133.862228 
	C1283.350464,112.030174 1292.260742,90.273483 1301.361816,68.174057 
M1268.611572,270.915985 
	C1269.070679,270.781097 1269.567871,270.718475 1269.983398,270.500458 
	C1276.108276,267.287170 1278.748779,261.426422 1280.822266,255.415314 
	C1286.548950,238.812698 1292.842285,222.274292 1291.964355,204.247421 
	C1291.516846,195.058487 1289.284912,186.542542 1281.771362,180.228912 
	C1274.362427,174.003128 1271.231689,174.266479 1267.611328,183.100861 
	C1264.999390,189.474152 1262.831909,196.344910 1262.209595,203.153183 
	C1260.875122,217.754761 1260.426636,232.454529 1260.127930,247.124527 
	C1260.019653,252.436691 1260.839844,257.928802 1262.275757,263.047241 
	C1263.060059,265.843109 1266.017456,268.029388 1268.611572,270.915985 
M1411.997314,111.647316 
	C1410.647217,109.761208 1409.693481,107.248589 1407.877197,106.099495 
	C1400.750000,101.590332 1382.876953,107.402145 1378.978882,114.911102 
	C1376.680176,119.338821 1373.056885,123.156090 1371.214233,127.725693 
	C1368.276489,135.010712 1366.540161,142.770203 1363.894287,150.185837 
	C1361.665039,156.433884 1365.606323,162.838333 1372.249023,162.994278 
	C1382.498779,163.234940 1388.336304,156.029938 1393.824097,149.213089 
	C1402.531860,138.396667 1408.908325,126.188087 1411.997314,111.647316 
M1301.595581,105.902763 
	C1306.845825,87.735115 1306.845825,87.735115 1303.858032,83.682930 
	C1298.344360,98.552673 1293.007690,112.945068 1287.671143,127.337463 
	C1288.296021,127.639046 1288.921021,127.940628 1289.546021,128.242203 
	C1293.391479,120.996185 1297.236938,113.750168 1301.595581,105.902763 
z"/>
<path fill="#ED9354" opacity="1.000000" stroke="none" 
	d="
M1506.000122,138.998596 
	C1510.033203,128.366547 1514.127319,118.155739 1517.929321,107.837257 
	C1520.588745,100.619736 1522.562744,99.822380 1529.571167,102.791054 
	C1534.775391,104.995499 1540.290405,106.463455 1545.658569,108.284683 
	C1548.942017,109.398666 1548.934692,109.420090 1548.724854,114.006401 
	C1541.323975,113.196342 1533.945557,112.388748 1526.155029,111.536057 
	C1522.137451,121.092232 1518.065552,130.760513 1514.007568,140.434692 
	C1510.375122,149.095062 1506.744385,157.756271 1503.139771,166.428207 
	C1501.173340,171.158905 1497.133423,172.890717 1492.570679,172.776337 
	C1491.026489,172.737625 1488.486084,170.369644 1488.200562,168.749023 
	C1485.572510,153.833466 1483.419678,138.835098 1480.965088,123.887680 
	C1479.200684,113.143295 1477.003052,102.466682 1475.431763,91.696655 
	C1475.098389,89.412483 1476.520874,86.805450 1477.438232,84.466316 
	C1477.605103,84.040985 1479.476318,83.795609 1480.151245,84.182190 
	C1480.987915,84.661598 1481.761108,85.819839 1481.938965,86.798065 
	C1486.118530,109.789841 1490.214233,132.796860 1494.325195,155.801071 
	C1494.817749,156.049911 1495.310181,156.298752 1495.802612,156.547577 
	C1499.180542,150.822998 1502.558472,145.098419 1506.000122,138.998596 
z"/>
<path fill="#ED9254" opacity="1.000000" stroke="none" 
	d="
M502.399597,129.059967 
	C504.830414,126.463524 507.618652,123.812164 510.760742,121.101364 
	C508.328705,123.696312 505.542816,126.350685 502.399597,129.059967 
z"/>
<path fill="#ED9254" opacity="1.000000" stroke="none" 
	d="
M2041.351196,120.977303 
	C2042.156860,119.467316 2043.271362,117.820740 2044.750244,116.108063 
	C2043.962891,117.641541 2042.811523,119.241127 2041.351196,120.977303 
z"/>
<path fill="#ED9254" opacity="1.000000" stroke="none" 
	d="
M2046.350098,114.978668 
	C2046.835327,113.808960 2047.628418,112.503708 2048.768066,111.120316 
	C2048.295898,112.309151 2047.476807,113.576134 2046.350098,114.978668 
z"/>
<path fill="#000000" opacity="1.000000" stroke="none" 
	d="
M293.638794,104.163803 
	C296.955536,104.331154 299.982513,104.204460 302.744446,104.999100 
	C308.575531,106.676727 310.523163,109.669014 308.859650,115.067871 
	C304.860413,128.047256 298.761566,139.972672 290.045654,150.514236 
	C285.630768,155.853867 280.834534,160.507645 273.983154,162.539490 
	C266.572845,164.737061 261.032349,160.626297 260.994415,152.885818 
	C260.933258,140.416260 266.471405,130.037460 273.332855,120.219559 
	C278.377991,113.000610 284.677582,107.199875 293.638794,104.163803 
z"/>
<path fill="#000000" opacity="1.000000" stroke="none" 
	d="
M52.419334,154.768280 
	C48.940109,152.314041 45.797493,150.044540 42.034523,147.327026 
	C53.392597,137.073105 62.102257,125.256165 75.401886,116.673157 
	C76.542137,131.828140 77.620148,146.155838 78.698151,160.483521 
	C78.196457,160.989029 77.694756,161.494553 77.193062,162.000061 
	C69.047356,159.651047 60.901649,157.302032 52.419334,154.768280 
z"/>
<path fill="#000000" opacity="1.000000" stroke="none" 
	d="
M180.725601,34.576164 
	C178.679474,44.040985 177.385666,53.260532 174.809097,62.106441 
	C173.023605,68.236397 169.595245,73.916649 166.605377,79.643524 
	C165.980286,80.840843 164.058792,81.361351 161.325073,83.079956 
	C163.550766,56.060608 170.905914,31.898111 178.737015,7.847947 
	C179.410553,7.851041 180.084091,7.854136 180.757629,7.857230 
	C181.171768,9.374128 181.976974,10.902291 181.933655,12.406013 
	C181.724579,19.664770 181.287064,26.916948 180.725601,34.576164 
z"/>
<path fill="#000000" opacity="1.000000" stroke="none" 
	d="
M518.333130,99.218460 
	C511.422058,113.186989 501.585236,123.937538 488.677856,132.397095 
	C484.540955,114.613472 506.278320,87.342110 521.357910,89.374252 
	C520.413696,92.623444 519.499329,95.770142 518.333130,99.218460 
z"/>
<path fill="#000000" opacity="1.000000" stroke="none" 
	d="
M392.247437,96.399963 
	C394.133301,93.709358 395.588074,91.111038 397.603668,89.065369 
	C399.571503,87.068108 401.446442,87.488480 403.092010,90.164871 
	C407.248688,96.925224 403.400665,101.782310 399.684814,106.773666 
	C392.120270,104.359940 390.616730,102.363518 392.247437,96.399963 
z"/>
<path fill="#000000" opacity="1.000000" stroke="none" 
	d="
M2772.223633,127.278435 
	C2769.856689,128.947418 2767.740234,130.356491 2765.494141,131.852127 
	C2760.645020,113.317558 2784.346436,86.524117 2797.694580,89.410629 
	C2794.758789,105.633316 2784.142090,116.676178 2772.223633,127.278435 
z"/>
<path fill="#000000" opacity="1.000000" stroke="none" 
	d="
M2506.315430,94.277412 
	C2507.590332,93.500160 2508.574707,92.935944 2509.562256,92.370041 
	C2516.885254,101.808975 2508.546387,128.775818 2495.555908,137.600983 
	C2489.104004,129.916748 2494.993164,105.665672 2506.315430,94.277412 
z"/>
<path fill="#000000" opacity="1.000000" stroke="none" 
	d="
M2266.475098,114.511055 
	C2266.177490,114.977135 2265.695801,115.246925 2265.214355,115.516724 
	C2265.267334,115.061913 2265.320312,114.607094 2265.645020,114.040367 
	C2266.041992,114.057228 2266.166748,114.185997 2266.475098,114.511055 
z"/>
<path fill="#000000" opacity="1.000000" stroke="none" 
	d="
M2021.988159,112.073830 
	C2027.825806,101.977478 2034.399902,93.121552 2045.894409,89.575752 
	C2046.666016,89.337715 2047.458130,89.103424 2048.255859,89.029922 
	C2049.047119,88.956993 2049.857178,89.089622 2050.617188,89.129898 
	C2051.543213,102.081215 2028.707764,128.537827 2018.175903,131.321365 
	C2017.340332,124.617302 2018.480347,118.306122 2021.988159,112.073830 
z"/>
<path fill="#000000" opacity="1.000000" stroke="none" 
	d="
M1598.994385,135.461349 
	C1599.035278,129.249832 1597.906128,123.093605 1599.463379,117.715111 
	C1601.538086,110.548599 1605.524536,103.892273 1609.077637,97.223480 
	C1610.141113,95.227730 1612.501587,93.923134 1614.945190,91.680222 
	C1615.744751,93.562798 1616.811768,95.005005 1616.929321,96.520805 
	C1617.893066,108.953308 1615.425171,120.592079 1607.960449,130.788376 
	C1606.177002,133.224197 1603.603149,135.103027 1601.250610,137.067474 
	C1601.010010,137.268295 1599.787231,136.292648 1598.994385,135.461349 
z"/>
<path fill="#000000" opacity="1.000000" stroke="none" 
	d="
M1796.634521,106.723969 
	C1793.034790,105.577827 1788.625977,104.228867 1789.284302,100.198334 
	C1789.937988,96.194939 1792.276245,92.073883 1794.951416,88.915321 
	C1797.165405,86.301208 1799.732788,88.358055 1800.949219,91.145554 
	C1803.628418,97.285599 1801.282837,102.178963 1796.634521,106.723969 
z"/>
<path fill="#000000" opacity="1.000000" stroke="none" 
	d="
M749.000610,211.215179 
	C747.944336,230.933365 746.540405,250.181274 739.828857,268.437531 
	C737.805237,273.942047 734.346008,279.187256 730.535461,283.699097 
	C725.679382,289.448975 718.086182,290.505829 712.843872,287.383575 
	C708.897583,285.033173 706.986267,277.376740 708.424377,271.020935 
	C713.570190,248.278717 724.343506,227.964798 735.724487,207.951355 
	C738.050171,203.861694 741.519836,200.367950 744.764832,196.881241 
	C746.161316,195.380737 748.329651,194.598557 751.026611,192.953827 
	C750.246277,199.807388 749.623779,205.274872 749.000610,211.215179 
z"/>
<path fill="#000000" opacity="1.000000" stroke="none" 
	d="
M863.318726,95.184074 
	C867.026428,92.294807 869.935852,93.013298 869.806702,97.094193 
	C869.335449,111.987450 867.161621,126.451202 854.562866,136.767380 
	C854.083801,137.159683 853.358398,137.251312 852.749756,137.488403 
	C847.141113,128.367905 852.636169,105.918434 863.318726,95.184074 
z"/>
<path fill="#000000" opacity="1.000000" stroke="none" 
	d="
M1053.769043,99.560257 
	C1052.032959,102.323235 1050.469238,104.742569 1048.226562,108.212532 
	C1045.448975,105.247414 1041.241211,102.687599 1041.449585,100.560539 
	C1041.838135,96.596153 1044.611450,92.770271 1046.833130,89.157845 
	C1047.299927,88.398727 1050.618896,88.202515 1050.992798,88.788063 
	C1052.441772,91.057922 1053.340454,93.712006 1054.206543,96.302452 
	C1054.489746,97.149612 1054.050293,98.238342 1053.769043,99.560257 
z"/>
<path fill="#000000" opacity="1.000000" stroke="none" 
	d="
M911.524780,135.488678 
	C911.822449,135.022583 912.304077,134.752731 912.785706,134.482910 
	C912.732727,134.937790 912.679749,135.392654 912.354858,135.959381 
	C911.958191,135.942459 911.833435,135.813705 911.524780,135.488678 
z"/>
<path fill="#000000" opacity="1.000000" stroke="none" 
	d="
M3104.800049,159.361084 
	C3092.013428,155.893784 3087.490479,153.497284 3081.597412,146.669678 
	C3091.911621,136.633606 3102.250488,126.573685 3112.589355,116.513763 
	C3113.189209,116.842964 3113.789307,117.172165 3114.389404,117.501366 
	C3115.470459,131.804733 3116.551514,146.108093 3117.700195,161.307892 
	C3112.751465,160.646271 3108.941162,160.136871 3104.800049,159.361084 
z"/>
<path fill="#000000" opacity="1.000000" stroke="none" 
	d="
M1268.303223,270.703308 
	C1266.017456,268.029388 1263.060059,265.843109 1262.275757,263.047241 
	C1260.839844,257.928802 1260.019653,252.436691 1260.127930,247.124527 
	C1260.426636,232.454529 1260.875122,217.754761 1262.209595,203.153183 
	C1262.831909,196.344910 1264.999390,189.474152 1267.611328,183.100861 
	C1271.231689,174.266479 1274.362427,174.003128 1281.771362,180.228912 
	C1289.284912,186.542542 1291.516846,195.058487 1291.964355,204.247421 
	C1292.842285,222.274292 1286.548950,238.812698 1280.822266,255.415314 
	C1278.748779,261.426422 1276.108276,267.287170 1269.983398,270.500458 
	C1269.567871,270.718475 1269.070679,270.781097 1268.303223,270.703308 
z"/>
<path fill="#000000" opacity="1.000000" stroke="none" 
	d="
M1411.993164,112.059296 
	C1408.908325,126.188087 1402.531860,138.396667 1393.824097,149.213089 
	C1388.336304,156.029938 1382.498779,163.234940 1372.249023,162.994278 
	C1365.606323,162.838333 1361.665039,156.433884 1363.894287,150.185837 
	C1366.540161,142.770203 1368.276489,135.010712 1371.214233,127.725693 
	C1373.056885,123.156090 1376.680176,119.338821 1378.978882,114.911102 
	C1382.876953,107.402145 1400.750000,101.590332 1407.877197,106.099495 
	C1409.693481,107.248589 1410.647217,109.761208 1411.993164,112.059296 
z"/>
<path fill="#000000" opacity="1.000000" stroke="none" 
	d="
M1301.339111,106.203461 
	C1297.236938,113.750168 1293.391479,120.996185 1289.546021,128.242203 
	C1288.921021,127.940628 1288.296021,127.639046 1287.671143,127.337463 
	C1293.007690,112.945068 1298.344360,98.552673 1303.858032,83.682930 
	C1306.845825,87.735115 1306.845825,87.735115 1301.339111,106.203461 
z"/>
</svg>